<svg width="169" height="241" viewBox="0 0 169 241" fill="none" xmlns="http://www.w3.org/2000/svg">
<path fill-rule="evenodd" clip-rule="evenodd" d="M16.162 236.363C17.276 238.056 19.4672 237.796 20.408 236.484C31.1205 238.981 42.1029 237.997 52.9643 237.385C83.571 236.139 114.351 240.045 144.834 235.959C148.068 235.312 151.831 235.621 154.477 233.378C158.709 228.417 157.798 220.884 157.124 214.842C151.72 180.78 144.038 146.405 140.206 112.124C139.992 108.859 141.337 104.802 142.543 101.732C142.841 101.161 144.723 100.601 145.7 99.943C148.698 97.79 148.212 93.932 145.613 91.668C137.198 85.734 125.484 87.808 116.557 89.997C114.846 83.569 112.923 79.342 109.666 78.923C103.467 78.126 88.428 75.691 83.795 78.923C81.579 80.469 80.157 85.917 78.562 88.571C66.9279 88.364 43.316 72.793 38.4617 90.328C34.5177 90.6 30.6114 94.045 31.3658 98.178C26.2508 102.7 30.2852 109.48 30.2144 115.108C29.542 127.049 23.0831 137.728 20.396 149.263C14.2538 171.635 7.3018 212.331 14.9199 234.169C14.756 234.083 14.3979 234.212 14.6298 234.393C15.4924 234.637 15.6046 235.724 16.162 236.363Z" fill="white"/>
<path fill-rule="evenodd" clip-rule="evenodd" d="M149.916 230.674C148.487 219.199 147.493 205.346 147.482 193.775C147.481 192.686 149.171 192.687 149.172 193.775C149.184 205.346 150.177 219.199 151.606 230.674C151.74 231.752 150.049 231.739 149.916 230.674ZM139.332 159.524C137.124 160.874 134.225 159.937 132.04 159.043C131.045 158.636 131.483 157.001 132.489 157.413C134.152 158.093 136.582 159.096 138.337 158.146C140.089 157.199 140.168 154.592 140.181 152.872C140.189 151.782 141.879 151.783 141.871 152.872C141.853 155.212 141.54 158.172 139.332 159.524ZM135.245 212.035C133.018 210.893 131.117 209.332 129.588 207.35C128.923 206.488 130.392 205.647 131.047 206.496C132.393 208.241 134.147 209.575 136.098 210.575C137.067 211.072 136.211 212.531 135.245 212.035ZM124.539 153.026C120.717 168.347 118.152 183.942 116.895 199.684C116.639 202.879 116.46 206.071 116.358 209.264C116.257 210.097 116.16 210.932 116.069 211.766C115.725 214.924 115.461 218.132 115.484 221.311C115.494 222.738 115.539 224.158 115.636 225.58C115.467 225.105 115.311 224.627 115.158 224.152C114.848 223.177 114.643 222.167 114.326 221.199C114.064 220.398 113.726 219.631 113.411 218.855V218.853C113.506 215.676 113.291 212.47 113.181 209.308C113.039 205.212 112.864 201.121 112.773 197.023C112.592 188.826 112.682 180.624 112.978 172.432C113.572 155.926 115.072 139.497 116.585 123.058C117.005 118.487 117.457 113.918 117.77 109.337C118.085 104.709 118.211 100.072 118.247 95.431C118.249 95.097 117.742 95.008 117.649 95.331C117.567 94.23 117.421 93.131 117.178 92.068C120.823 94.393 124.666 96.403 128.432 98.516C130.416 99.63 132.392 100.763 134.437 101.761C135.561 102.31 136.695 102.815 137.853 103.293C139.053 103.788 140.2 104.468 141.52 104.123C141.635 104.094 141.742 104.052 141.846 103.997C141.696 104.282 141.546 104.565 141.402 104.853C140.904 105.844 140.428 106.839 139.968 107.843C139.845 107.934 139.737 108.059 139.653 108.222C139.429 108.659 139.211 109.101 139 109.549C138.958 109.509 138.916 109.469 138.873 109.428C138.696 109.262 138.451 109.513 138.607 109.695C138.679 109.777 138.749 109.858 138.818 109.94C137.441 112.905 136.321 116.023 135.168 119.066C133.75 122.807 132.406 126.575 131.141 130.369C128.646 137.832 126.444 145.392 124.539 153.026ZM69.899 208.627C62.8549 212.4 56.2726 216.91 49.9418 221.775C49.0788 222.438 48.2379 220.968 49.0887 220.315C55.4195 215.45 62.002 210.94 69.046 207.167C70.005 206.653 70.858 208.113 69.899 208.627ZM46.1078 164.43C45.7417 164.402 45.3859 164.19 45.2929 163.809C44.7223 161.472 44.2755 158.926 44.8062 156.542C45.0428 155.479 46.6719 155.932 46.4359 156.992C46.0174 158.871 46.3499 160.903 46.7845 162.778C52.9279 163.047 58.989 160.841 64.8667 159.36C65.9236 159.094 66.37 160.725 65.316 160.991C59.0811 162.562 52.6319 164.913 46.1078 164.43ZM168.411 226.77C168.417 226.755 168.423 226.738 168.427 226.724C168.789 225.629 168.797 224.357 168.837 223.209C168.907 221.167 168.833 219.121 168.649 217.086C168.261 212.802 167.424 208.588 166.425 204.409C164.445 196.133 161.648 188.08 160.129 179.692C157.148 163.226 157.856 146.081 152.006 130.198C149.574 123.595 146.101 117.248 141.381 112.003C141.725 110.954 142.061 109.904 142.389 108.849C142.961 107.015 143.546 105.121 143.899 103.232C143.908 103.181 143.918 103.128 143.925 103.075C145.934 102.209 147.761 100.575 148.074 98.402C148.209 97.464 148.053 96.424 147.647 95.517C148.475 94.752 149.008 93.759 148.881 92.427C148.644 89.921 145.718 89.276 143.682 88.786C141.366 88.23 138.964 88.076 136.596 88.338C135.4 88.469 134.217 88.689 133.061 89.018C132.058 89.304 130.966 89.597 130.161 90.287C130.066 90.367 130.144 90.523 130.258 90.523C131.887 90.517 133.509 89.919 135.155 89.84C136.879 89.76 138.599 89.902 140.289 90.257C141.941 90.604 143.589 91.111 145.091 91.895C145.513 92.117 146.132 92.267 145.636 92.715C145.273 93.043 144.558 93.07 144.092 93.119C143.058 93.226 142.167 93.831 142.036 94.934C141.92 95.908 142.501 97.012 143.536 97.231C143.593 97.244 143.646 97.259 143.692 97.278C143.72 97.331 143.762 97.375 143.758 97.303C143.758 97.303 143.76 97.301 143.76 97.303C143.785 97.458 143.794 97.519 143.794 97.529C143.787 97.517 143.777 97.464 143.768 97.422C143.775 97.46 143.787 97.521 143.804 97.612C143.781 97.513 143.8 97.756 143.781 97.794C143.232 98.808 141.607 99.094 140.661 99.531C140.477 99.615 140.318 99.715 140.183 99.827C139.959 99.749 139.731 99.67 139.501 99.584C138.366 99.159 137.234 98.747 136.085 98.364C133.866 97.622 131.62 96.961 129.402 96.217C125.202 94.809 121.142 93.032 117.02 91.421C116.889 90.935 116.737 90.46 116.557 89.997C116.521 89.9 116.348 89.868 116.329 89.997C116.265 90.407 116.215 90.819 116.173 91.233C116.156 91.271 116.151 91.314 116.16 91.354C115.921 93.763 115.985 96.23 115.862 98.637C115.71 101.638 115.285 104.618 115.165 107.621V107.676C114.721 110.24 114.32 112.812 113.956 115.393C113.549 115.266 113.082 115.291 112.604 115.547C109.228 117.35 105.434 118.354 101.616 118.578C99.694 118.69 97.79 118.627 95.878 118.405C94.621 118.261 93.383 117.999 92.143 117.749C92.796 115.012 93.497 112.288 94.289 109.591C94.942 107.374 95.669 105.168 96.567 103.035C97.473 100.881 98.601 98.825 99.651 96.737C100.135 95.771 99.565 94.294 98.308 94.395C97.936 94.425 97.564 94.448 97.19 94.465C93.552 94.638 89.768 94.233 86.177 93.871C82.089 93.457 77.946 93.028 73.894 92.354C73.594 92.305 73.471 92.713 73.767 92.812C75.689 93.459 77.589 94.19 79.56 94.674C81.588 95.175 83.629 95.632 85.687 95.989C87.658 96.329 89.637 96.614 91.623 96.855C92.918 97.014 94.228 97.094 95.532 97.2C93.776 100.006 92.566 103.172 91.511 106.29C90.157 110.293 89.162 114.412 88.188 118.523C86.105 127.334 84.387 136.234 83.044 145.189C82.08 151.61 81.301 158.056 80.716 164.519C80.542 162.556 80.331 160.599 80.092 158.644C79.294 152.153 78.127 145.705 76.568 139.354C76.708 139.108 76.773 138.815 76.727 138.529C76.446 136.784 75.706 135.264 75.058 133.645C74.413 131.384 73.718 129.137 72.97 126.907C72.121 123.87 71.168 120.879 69.949 117.959C69.018 115.733 67.955 113.564 66.7718 111.462C65.3585 108.522 63.8056 105.646 62.1007 102.896C62.012 102.64 61.8683 102.401 61.6634 102.2C61.3528 101.71 61.038 101.226 60.7169 100.746C60.5078 100.433 59.9078 100.624 60.0662 101.021C60.1401 101.207 60.2141 101.393 60.2901 101.577C53.3458 99.84 46.5366 102.496 39.9218 104.458C38.2528 104.954 36.5669 105.402 34.8556 105.726C33.5099 105.979 31.9423 106.288 30.6007 106.009C29.7028 105.823 29.3056 105.415 29.743 104.455C30.1951 103.462 31.4289 102.809 32.5 102.37C32.9035 102.283 33.3007 102.128 33.6831 101.896C34.5747 101.355 34.9655 100.226 34.5451 99.265C34.1627 98.396 33.0472 97.648 32.0606 98.045C31.919 98.102 31.7796 98.157 31.6401 98.212C31.6254 98.191 31.6085 98.161 31.5937 98.119C31.4521 97.732 31.3909 98.195 31.4521 97.641C31.5535 96.737 32.5106 95.915 33.1655 95.397C34.7944 94.106 37.1479 93.15 39.25 93.639C39.4085 93.674 39.5669 93.719 39.7232 93.774C41.8887 94.524 42.943 91.405 41.2127 90.242C41.107 90.172 40.9739 90.084 40.8282 89.98C40.1078 89.479 39.0535 88.636 39.3409 87.875C39.6958 86.93 41.7894 86.387 42.5817 86.066C45.4465 84.903 48.5416 84.244 51.6303 84.109C54.738 83.973 57.8859 84.316 60.8838 85.155C62.3542 85.565 63.8648 86.188 65.2549 86.818C66.5035 87.383 69.22 88.129 69.394 89.71C69.432 90.058 69.928 90.177 70.036 89.796C70.887 86.761 67.583 84.802 65.4028 83.549C63.9725 82.724 62.35 82.211 60.7803 81.706C59.2761 81.22 57.7402 80.862 56.1725 80.647C52.8071 80.186 49.4014 80.245 46.0634 80.892C43.0232 81.482 39.6409 82.488 37.1838 84.445C35.6754 85.645 34.993 87.556 35.5993 89.42C35.6204 89.481 35.6416 89.545 35.6627 89.606C32.9479 90.092 30.3789 91.648 28.6613 93.816C27.25 95.598 26.5106 98.077 27.7739 100.15C27.7211 100.188 27.6683 100.228 27.6176 100.271C26.4134 101.234 25.5176 102.634 25.2514 104.164C24.7296 107.182 26.5528 109.293 29.1028 110.101C28.4711 110.718 27.8648 111.373 27.2711 112.028C25.9423 113.497 24.6725 115.097 23.5528 116.729C21.2838 120.034 19.3444 123.633 17.6479 127.26C14.1599 134.708 11.9606 142.725 10.7944 150.853C10.207 154.949 9.8141 159.066 9.6641 163.2C9.4908 167.913 9.6662 172.629 9.5754 177.344C9.4866 181.875 8.9859 186.297 7.9739 190.714C7.0042 194.939 5.7113 199.079 4.5408 203.249C3.2204 207.945 1.7669 212.62 1.0697 217.462C0.716899 219.926 0.463401 222.397 0.659901 224.889C0.858501 227.427 1.7796 229.598 2.6289 231.959C2.8444 232.561 3.5014 232.804 4.0275 232.675C4.1458 233.806 4.5725 234.909 5.2085 235.865C6.5585 237.889 8.6373 239.181 11.0183 239.65C13.7014 240.176 16.4669 240.051 19.1838 239.954C22.131 239.849 25.0803 239.753 28.0275 239.631C31.113 239.503 34.1984 239.372 37.2839 239.241C37.1819 236.077 37.0602 232.914 36.9227 229.752C36.1788 212.657 35.0073 195.552 34.9763 178.435C34.9165 178.4 34.8578 178.358 34.8016 178.304C33.4125 176.961 31.7071 176.078 30.1049 175.027C29.1981 174.432 30.0457 172.969 30.958 173.567C32.3088 174.454 33.7165 175.241 34.9824 176.234C34.9898 174.452 35.0054 172.671 35.0407 170.889C35.0623 169.8 36.7524 169.8 36.7309 170.889C36.6248 176.259 36.6603 181.631 36.7818 187.001C37.1749 204.403 38.4108 221.773 38.9737 239.168C47.2554 238.814 55.5375 238.458 63.8204 238.155C70.558 237.91 77.295 237.665 84.032 237.42C85.446 237.37 86.24 236.359 86.413 235.038C86.73 232.607 86.135 230.095 84.787 228.051C84.647 227.84 84.482 227.652 84.299 227.491C84.33 226.035 84.389 224.576 84.307 223.12C84.185 220.897 84.001 218.673 83.84 216.452C83.515 212.003 83.263 207.546 83.164 203.086C82.961 194.167 83.109 185.24 83.614 176.334C84.626 158.54 86.982 140.861 90.837 123.456C91.118 122.188 91.401 120.92 91.695 119.654C94.693 121.211 98.339 121.771 101.616 121.792C105.723 121.818 109.739 120.873 113.449 119.155C113.424 119.347 113.399 119.537 113.375 119.73C112.34 127.972 111.468 136.232 110.707 144.502C109.19 160.99 108.261 177.545 108.389 194.106C108.425 198.694 108.601 203.268 108.818 207.85C109.04 212.51 109.38 217.435 110.677 221.93C110.821 222.427 111.14 222.712 111.508 222.816C111.527 223.471 111.569 224.128 111.615 224.775C111.765 226.878 112.194 231.247 113.111 233.153C114.005 235.013 115.494 236.488 117.394 237.3C119.806 238.329 122.415 238.033 124.963 237.868C136.042 237.145 147.113 236.177 158.185 235.328C159.727 235.209 161.27 235.093 162.81 234.973C164.181 234.867 165.599 234.774 166.816 234.062C168.199 233.252 169.279 229.277 168.801 227.632C168.715 227.332 168.584 227.036 168.411 226.77Z" fill="black"/>
<path fill-rule="evenodd" clip-rule="evenodd" d="M129.856 29.6399C122.423 10.0779 109.025 -4.2446 86.438 4.7513C85.79 4.31 84.945 4.1916 84.135 4.7084C71.831 12.4373 62.9703 24.8285 59.1305 38.8011C56.7937 39.2456 54.523 40.0208 52.4948 41.2921C48.0869 44.055 45.1214 48.4516 42.3415 52.734C41.5055 54.021 42.2796 56.152 43.8506 56.444C44.533 56.572 45.2093 56.647 45.8817 56.667C45.718 57.262 45.5025 57.836 45.2281 58.363C44.2345 60.27 46.1116 62.295 47.8708 61.774C48.066 61.877 48.2705 61.962 48.4824 62.026C48.5065 63.106 49.0615 64.553 50.1599 64.771C51.9362 65.152 54.2969 63.792 53.8778 61.805C54.4144 61.899 54.9491 61.911 55.4703 61.845C55.5286 62.88 55.5105 63.96 55.6533 64.915C56.1202 69.414 60.6138 72.437 64.8992 71.068C65.162 72.47 65.4707 74.44 66.8509 75.2C68.465 79.729 71.251 84.897 75.815 86.96C75.408 88.002 75.629 89.268 76.852 89.965C85.206 94.73 95.233 96.342 104.677 94.571C108.452 94.346 112.13 93.492 115.659 91.675C118.233 90.349 120.6 88.666 122.91 86.93C125.221 85.194 127.692 83.504 129.537 81.25C131.541 78.802 132.474 75.921 133.079 72.856C135.853 58.941 134.895 45.2775 129.856 32.0221C123.619 15.6139 136.091 46.0489 129.856 29.6399Z" fill="white"/>
<path fill-rule="evenodd" clip-rule="evenodd" d="M93.923 0.939302C97.727 0.670602 101.6 1.3121 105.222 2.4595C111 4.2889 116.306 7.5175 120.665 11.7207C125.157 16.0523 128.48 21.3929 130.5 27.2915C132.937 34.4051 133.301 42.0006 133.987 49.4264C134.333 53.178 134.904 56.873 135.498 60.588L135.592 61.175C136.171 64.795 136.497 68.456 135.697 72.071C134.365 78.078 130.374 83.177 125.636 86.944C115.904 94.685 100.753 99.403 89.421 92.281C87.668 91.179 89.329 88.361 91.041 89.509C92.245 90.318 93.521 91.026 94.89 91.516C100.607 93.56 106.886 92.832 112.537 90.93C118.105 89.057 123.448 85.891 127.557 81.666C131.873 77.229 134.264 71.748 133.919 65.512C133.713 61.801 132.868 58.159 132.399 54.479C131.983 51.219 131.734 47.9414 131.447 44.6685L131.342 43.4912C130.733 36.823 129.859 29.9718 126.826 23.9189C124.275 18.8267 120.539 14.2964 116.048 10.7977C111.345 7.1348 105.729 4.573 99.836 3.6175C92.906 2.4939 86.272 4.5371 80.491 8.3405C75.364 11.7137 70.956 16.2214 67.576 21.336C65.9373 23.816 64.541 26.4644 63.3353 29.1805C62.1991 31.7395 61.4157 34.4216 60.502 37.0592C61.2539 37.0368 62.0182 37.0658 62.7944 37.1516C66.7756 37.5929 70.485 39.6569 72.846 42.9115C75.732 46.8885 74.952 51.77 76.079 56.293C76.166 56.644 76.018 56.988 75.717 57.182C74.008 58.287 71.721 58.324 70.067 57.08C68.632 56 67.958 54.048 68.539 52.342C68.615 52.119 68.938 52.159 68.947 52.397C69.057 55.3 71.749 57.535 74.388 56.154C73.256 52.254 73.852 47.8983 71.536 44.3755C67.438 38.1407 58.958 37.8831 53.0018 41.3978C49.8671 43.2473 47.3859 46.0282 45.5383 49.1388L45.0061 50.0418C44.2979 51.248 43.5479 52.613 43.4009 53.942C43.3162 54.709 43.5991 55.429 44.4784 55.043C45.1897 54.73 45.7405 54.001 46.163 53.375C46.8837 52.306 48.5396 53.229 47.9444 54.368L47.9242 54.405C47.0579 55.94 46.5245 57.632 46.4266 59.395L46.4017 59.883C46.3854 60.239 46.3736 60.744 46.4489 60.763C46.5391 60.785 47.1659 60.061 47.2703 59.961C47.7731 59.478 48.2909 59.083 48.9909 58.954C49.911 58.786 50.8393 59.924 50.0406 60.671L50.0073 60.701C49.2944 61.321 49.3261 62.557 50.1135 63.137C51.2248 63.955 52.5929 62.62 52.7542 61.52L52.7597 61.479C52.9023 60.291 54.5516 60.249 54.6412 61.479C54.8358 64.149 51.659 66.386 49.2418 65.039C48.2861 64.507 47.6785 63.533 47.4881 62.488C47.183 62.65 46.8539 62.761 46.5059 62.792C45.3731 62.893 44.5678 62.096 44.3846 61.026C44.1712 59.78 44.2978 58.446 44.6259 57.153C44.0106 57.301 43.3635 57.244 42.713 56.869C40.7451 55.733 41.3102 53.206 42.0532 51.5C45.2254 44.2179 51.7975 37.6104 59.9398 37.0859C59.9844 35.8011 60.1585 34.5864 60.4432 33.2999C63.2282 20.7164 72.25 9.0642 83.996 3.6181C87.134 2.1628 90.463 1.1838 93.923 0.939302ZM63.1212 51.206L63.2328 51.181C64.5017 50.9073 67.841 50.586 67.439 52.722C67.42 52.823 67.274 52.81 67.248 52.722C66.8534 51.379 64.1754 52.453 63.3935 52.777C62.3156 53.222 61.2523 53.879 60.3722 54.643C58.4452 56.316 57.1535 58.674 56.957 61.235C56.7622 63.775 57.4989 66.519 59.3306 68.356C60.2285 69.257 61.3746 69.868 62.6621 69.913C63.8188 69.954 65.0967 69.053 66.1641 69.58C66.3745 69.684 66.5412 69.97 66.5222 70.205C66.4863 70.65 66.2872 70.996 65.991 71.265C67.778 74.522 69.24 77.97 71.52 80.933C72.664 82.419 73.96 83.795 75.427 84.966C76.125 85.523 76.883 86.012 77.665 86.442C78.582 86.946 79.375 87.261 80.029 88.115C80.587 88.843 80.029 90.251 79.109 90.377C76.944 90.672 74.84 88.921 73.25 87.609C71.662 86.298 70.29 84.681 69.155 82.966C66.9772 79.671 65.4872 75.785 64.8914 71.853C64.1997 72.073 63.421 72.14 62.8351 72.141C61.2764 72.144 59.788 71.584 58.5631 70.636C54.0787 67.166 53.5803 60.042 56.7449 55.549C58.2593 53.4 60.5604 51.812 63.1212 51.206ZM63.1491 59.468C64.1889 59.377 65.2279 59.541 66.2053 59.896L66.6082 60.042C67.459 60.353 68.365 60.719 68.98 61.358C69.919 62.333 68.984 64.024 67.646 63.65C66.167 63.236 64.9649 61.99 63.4863 61.468C62.1646 61 60.6675 61.067 59.4946 61.871C59.3397 61.977 59.136 61.768 59.2372 61.613C60.1345 60.247 61.551 59.609 63.1491 59.468Z" fill="black"/>
<path fill-rule="evenodd" clip-rule="evenodd" d="M105.834 69.84C107.016 67.895 109.535 72.66 109.803 73.479C110.04 74.205 110.197 74.948 110.276 75.7C111.192 75.905 112.144 75.906 113.083 75.726C114.478 75.458 115.331 74.707 116.544 74.063C117.381 73.618 118.437 74.14 118.873 74.878C119.385 75.748 119.059 76.65 118.385 77.298C117.107 78.526 114.592 78.809 112.924 78.482C111.968 78.296 111.092 77.937 110.319 77.416C110.314 77.513 110.31 77.61 110.303 77.708L110.288 77.876C110.16 79.239 109.785 80.952 108.727 81.839C106.992 83.294 104.85 80.496 106.536 79.043L106.588 79C107.637 78.152 107.865 75.879 107.809 74.627C107.772 73.81 107.623 72.983 107.365 72.204L107.312 72.049C107.234 71.829 106.388 69.744 106.082 70.01L106.068 70.025C105.941 70.175 105.738 70 105.834 69.84ZM115.271 58.866C116.866 59.836 119.297 62.098 117.581 64.503C115.561 66.624 112.652 64.192 111.219 63.093C109.89 62.24 108.396 64.432 109.63 65.427C119.987 73.098 124.19 59.12 116.078 57.725C115.185 57.572 114.853 58.566 115.271 58.866ZM98.235 49.899C99.794 49.6223 101.392 50.0101 102.682 50.9227L102.78 50.9931C104.023 51.903 105.413 53.499 104.7 55.067C104.414 55.696 103.556 55.795 103.012 55.51C102.107 55.035 101.943 53.866 101.135 53.219C100.472 52.688 99.579 52.367 98.726 52.444C96.721 52.626 95.487 54.605 94.865 56.31C94.785 56.528 94.465 56.613 94.34 56.379C92.871 53.633 95.471 50.3897 98.235 49.899ZM123.209 48.8627C126.196 48.6165 129.692 51.714 128.905 54.868C128.528 56.381 126.284 56.338 125.885 54.868C125.666 54.059 125.688 53.343 125.106 52.672C124.625 52.117 123.943 51.795 123.209 51.844C122.4 51.899 121.654 52.303 121.088 52.872C120.576 53.385 120.27 54.136 119.739 54.59C119.609 54.701 119.434 54.709 119.305 54.59C118.392 53.748 118.94 51.996 119.519 51.117C120.347 49.8592 121.696 48.9876 123.209 48.8627ZM92.548 44.3055C94.464 42.6088 97.945 40.9702 100.529 41.8053C102.014 42.2852 102.662 44.6796 101.003 45.4386C99.083 46.3174 96.869 45.9598 94.915 46.8707C94.094 47.2535 93.322 47.7317 92.751 48.4332C92.3 48.9861 91.842 49.7136 91.191 50.0323C91.02 50.1162 90.788 50.1183 90.651 49.9627C89.224 48.3476 91.301 45.409 92.548 44.3055ZM119.916 41.7211C121.1 41.3886 122.414 41.3954 123.617 41.6042C124.819 41.813 126.04 42.3116 127.022 43.0388L127.136 43.124C128.208 43.9319 129.487 45.1075 129.418 46.5388C129.361 47.734 128.104 48.5424 127.019 47.9159C126.135 47.4051 125.718 46.3817 124.969 45.7004C124.351 45.1379 123.626 44.6945 122.851 44.3839C121.991 44.0387 121.129 43.877 120.206 43.8616C119.495 43.8498 118.78 44.0831 118.082 44.1577C118.14 44.2756 117.588 44.2207 117.272 44.1161C117.038 44.0163 117.037 43.7202 117.118 43.5281C117.52 42.5764 118.985 41.9823 119.916 41.7211Z" fill="black"/>
<path fill-rule="evenodd" clip-rule="evenodd" d="M133.773 67.395C133.491 66.554 132.042 66.627 132.131 67.618C132.233 68.75 131.846 70.012 130.762 70.561C129.627 71.137 128.35 70.619 127.658 69.632C127.056 68.775 126.641 67.841 125.884 67.093C125.179 66.397 124.323 65.861 123.386 65.542C122.656 65.294 121.899 65.228 121.165 65.31C119.336 64.896 117.216 65.837 116.076 67.264C116.002 67.356 115.934 67.45 115.868 67.546C115.755 67.392 115.637 67.239 115.511 67.089C115.188 66.702 114.787 66.619 114.425 66.724C112.363 65.19 109.473 64.987 107.131 66.371C105.254 67.481 103.702 69.116 101.395 69.243C99.567 69.344 97.576 68.301 97.447 66.291C97.38 65.242 95.951 64.368 95.149 65.339C93.464 67.382 93.126 70.095 94.059 72.564C95.043 75.17 97.048 77.006 99.587 78.085C102.328 79.251 105.54 79.656 108.506 79.564C111.463 79.472 114.151 78.335 115.933 75.915C116.145 75.627 116.332 75.333 116.496 75.036C118.227 77.24 120.939 78.167 123.701 78.233C126.592 78.303 130.008 77.795 132.052 75.55C134.021 73.386 134.7 70.167 133.773 67.395Z" fill="black"/>
<path fill-rule="evenodd" clip-rule="evenodd" d="M130.095 62.465C126.925 63.993 122.501 61.739 120.369 59.379C119.593 58.52 118.995 56.061 119.293 54.502C120.102 50.2789 123.14 47.7444 126.347 46.8789C130.793 45.6789 135.267 48.7189 134.745 52.306C134.251 55.706 133.502 60.638 130.095 62.465ZM108.514 54.353C108.26 58.955 104.566 62.983 100.15 64.177C93.036 66.163 89.52 61.16 87.928 55.77C87.769 55.235 87.397 53.6 88.396 52.198C92.322 46.6828 101.874 47.6229 106.644 49.137C108.041 50.4729 108.612 52.401 108.514 54.353ZM133.541 46.4154C133.538 46.4182 133.536 46.4205 133.534 46.4233C133.518 46.4133 133.502 46.4032 133.485 46.3935C133.503 46.4011 133.523 46.4076 133.541 46.4154ZM139.493 46.9474C139.08 42.2617 124.383 44.0559 122.665 44.4399C117.976 45.8196 113.926 49.5732 108.683 47.9232C103.25 41.8652 84.957 43.6025 81.122 46.6884C80.396 46.4035 79.513 46.5564 78.578 46.8252C73.775 46.6517 51.849 48.308 56.3337 54.44C57.0144 54.913 57.6945 54.432 57.7133 53.459C81.093 45.0162 78.827 52.924 81.599 52.001C82.023 52.123 82.464 52.2 82.851 52.281C84.997 52.972 85.726 52.758 86.008 55.168C87.95 73.778 112.723 67.355 110.691 52.09C112.702 51.98 114.462 51.109 116.589 51.959C118.066 66.339 129.633 66.919 133.115 61.934C135.74 58.475 134.699 53.253 138.307 50.5316C139.731 51.724 139.823 47.6995 139.493 46.9474Z" fill="black"/>
</svg>
