<svg width="48" height="48" viewBox="0 0 48 48" fill="none" xmlns="http://www.w3.org/2000/svg">
<path d="M24.0432 0C10.8147 0 0.0876465 10.9079 0.0876465 24.3645C0.0876465 35.1296 6.95165 44.2626 16.4699 47.4844C17.6672 47.7099 18.1067 46.9558 18.1067 46.3123C18.1067 45.7313 18.0845 43.812 18.0742 41.776C11.4097 43.2499 10.0034 38.9013 10.0034 38.9013C8.9137 36.085 7.34358 35.3362 7.34358 35.3362C5.17009 33.824 7.50742 33.8551 7.50742 33.8551C9.91297 34.0265 11.1796 36.3659 11.1796 36.3659C13.3162 40.0907 16.7837 39.0139 18.1507 38.3913C18.3657 36.817 18.9866 35.7413 19.6716 35.1333C14.3508 34.5172 8.7574 32.428 8.7574 23.092C8.7574 20.4319 9.6932 18.2584 11.2256 16.5521C10.9769 15.938 10.1569 13.4603 11.4577 10.1042C11.4577 10.1042 13.4693 9.44935 18.0472 12.6017C19.9581 12.0618 22.0074 11.7911 24.0432 11.7818C26.0791 11.7911 28.13 12.0618 30.0444 12.6017C34.6167 9.44935 36.6256 10.1042 36.6256 10.1042C37.9295 13.4603 37.1091 15.938 36.8604 16.5521C38.3964 18.2584 39.3259 20.4319 39.3259 23.092C39.3259 32.4502 33.7218 34.5107 28.3874 35.1139C29.2467 35.87 30.0123 37.3528 30.0123 39.6259C30.0123 42.8856 29.9845 45.5094 29.9845 46.3123C29.9845 46.9607 30.4157 47.7204 31.63 47.4812C41.1431 44.2558 47.9984 35.126 47.9984 24.3645C47.9984 10.9079 37.273 0 24.0432 0Z" fill="white"/>
</svg>
