<svg width="252" height="394" viewBox="0 0 252 394" fill="none" xmlns="http://www.w3.org/2000/svg">
<path d="M232.813 256.659H153.166V383.051H232.813V256.659Z" fill="#B2B2B2"/>
<path d="M153.477 256.659H73.8301V383.051H153.477V256.659Z" fill="#D1D1D1"/>
<path d="M111.749 103.401L108.354 171.34L92.3882 221.16H121.132L136.061 178.235L140.726 129.451L111.749 103.401Z" fill="#F7EBE7"/>
<path d="M110.947 340.862L116.727 367.794L97.314 370.101L91.7934 343.584L110.947 340.862Z" fill="#FCC9A7"/>
<path d="M110.61 210.636H65.5376C65.5376 210.636 38.09 209.107 36.4572 231.632C34.8243 254.157 76.7084 318.598 83.2657 353.021L120.951 349.911L93.8145 256.309L161.306 256.698C166.308 256.724 171.285 255.998 176.002 254.365C189.142 249.803 209.203 243.271 198.266 207.085L110.61 210.636Z" fill="#2F3132"/>
<path d="M145.392 340.963L154.567 373.157L135.154 375.464L126.238 343.685L145.392 340.963Z" fill="#FCC9A7"/>
<path d="M117.892 365.368C117.4 363.916 115.845 363.398 114.782 364.331C112.709 366.171 108.977 368.426 103.456 367.882C97.7279 367.312 95.5767 363.942 94.7473 361.505C94.3067 360.235 93.0886 359.587 92 360.132L57.2434 377.602C55.1441 378.665 53.4853 380.635 52.6559 383.098C51.8783 385.405 53.4334 387.893 55.6106 387.841L115.663 386.182C118.022 386.13 119.836 383.798 119.629 381.102L118.644 367.882C118.618 367.675 118.592 367.441 118.514 367.234L117.892 365.368Z" fill="#2F3132"/>
<path d="M155.733 370.715C155.241 369.264 153.686 368.745 152.623 369.678C150.55 371.519 146.818 373.774 141.297 373.229C135.569 372.659 133.418 369.289 132.588 366.853C132.148 365.583 130.929 364.935 129.841 365.479L95.0845 382.95C92.9851 384.013 91.3261 385.983 90.4967 388.445C89.7191 390.752 91.2745 393.241 93.4517 393.189L154.541 391.53C156.9 391.478 158.714 389.145 158.506 386.449L156.459 373.229C156.433 373.022 156.407 372.789 156.33 372.581L155.733 370.715Z" fill="#2F3132"/>
<path d="M164.467 76.6898C165.478 77.6748 210.705 89.2096 210.705 89.2096L201.038 114.897L151.585 111.165L164.467 76.6898Z" fill="#F7EBE7"/>
<path d="M145.806 82.8867C145.806 82.8867 116.337 93.6439 111.75 103.39C113.331 117.154 118.178 130.4 126.16 141.727C135.958 155.621 148.061 179.494 145.832 210.626H231.026C231.026 210.626 226.439 123.038 201.22 89.4188L145.806 82.8867Z" fill="#F7EBE7"/>
<path d="M155.472 96.7731C163.844 95.0623 169.235 86.8972 167.524 78.5247L162.522 54.0293L132.224 60.2242L137.226 84.7198C138.937 93.0923 147.101 98.4839 155.472 96.7731Z" fill="#FCC9A7"/>
<path d="M164.595 62.5952C164.595 62.5952 161.408 82.4507 145.96 83.6431C132.431 84.6799 133.726 65.1095 133.726 65.1095L164.595 62.5952Z" fill="#FACEB1"/>
<path d="M147.179 72.7539L149.848 72.1318C163.248 69.0213 171.594 55.646 168.484 42.2707L164.959 27.0032C161.849 13.602 148.475 5.2554 135.101 8.36593L132.431 8.98803C119.031 12.0986 110.686 25.4738 113.796 38.8492L117.321 54.1167C120.431 67.5178 133.805 75.8644 147.179 72.7539Z" fill="#FACEB1"/>
<path d="M160.086 48.6284C159.464 49.6912 158.868 51.2983 158.66 53.7348C158.427 56.8195 156.872 59.7485 154.28 61.4593C146.841 66.3843 141.165 53.9163 130.176 56.1196C130.176 56.1196 125.873 56.7676 125.018 61.563C124.163 66.3325 118.176 57.9859 116.854 52.2833C115.532 46.5806 114.858 80.5113 141.917 77.6341C141.917 77.6341 155.576 77.1934 164.777 63.2738C165.788 61.7445 166.384 59.9559 166.436 58.1155C166.513 55.3938 166.125 51.2723 163.533 48.3173C162.626 47.2287 160.811 47.3842 160.086 48.6284Z" fill="#1C2226"/>
<path d="M160.113 40.9247C160.113 40.9247 148.423 37.0624 150.393 19.9805C150.393 19.9805 121.365 47.4568 99.8524 27.2902C99.8524 27.2902 109.468 24.724 113.434 18.1401C120.665 6.13862 141.451 -10.399 158.091 8.73075C158.091 8.73075 178.333 5.5943 172.528 36.7773L160.113 40.9247Z" fill="#2E3234"/>
<path d="M160.112 40.9301C161.227 45.6996 165.996 48.6805 170.765 47.5918C175.559 46.4772 178.514 41.7077 177.425 36.9383C176.311 32.1688 171.542 29.1879 166.773 30.2766C161.978 31.3912 158.998 36.1606 160.112 40.9301Z" fill="#FCC9A7"/>
<path d="M145.339 95.827L157.858 96.06L149.097 114.205L139.637 96.8118L145.339 95.827Z" fill="#0C2C40"/>
<path d="M168.588 77.4962L152.468 96.3148L162.964 108.368L182.274 81.825C182.274 81.825 177.323 73.8672 168.588 77.4962Z" fill="#FFF7F3"/>
<path d="M145.34 95.8304L136.061 106.302L129.529 89.9722C129.529 89.9722 131.24 82.6366 136.579 84.0363L145.34 95.8304Z" fill="#FFF7F3"/>
<path d="M148.76 108.344C148.76 108.344 136.656 139.916 139.663 184.708L151.585 195.595L165.503 182.193L150.497 106.297L148.76 108.344Z" fill="#0C2C40"/>
<path d="M171.388 183.311L145.47 191.838L143.759 207.054L178.127 196.789L171.388 183.311Z" fill="#FCC9A7"/>
<path d="M149.332 201.904C149.332 210.795 142.126 218.027 133.21 218.027C124.32 218.027 117.089 210.821 117.089 201.904C117.089 193.013 124.294 185.781 133.21 185.781C142.1 185.781 149.332 192.987 149.332 201.904Z" fill="#FCC9A7"/>
<path d="M145.806 210.622H100.76C100.76 210.622 73.312 209.092 71.6792 231.618C70.0463 254.143 115.015 322.73 121.572 357.127L159.257 354.017L129.037 256.268L196.528 256.657C201.53 256.683 206.507 255.957 211.224 254.324C224.364 249.762 244.425 243.23 233.487 207.044L145.806 210.622Z" fill="#2F3132"/>
<path d="M9.916 130.982H87.8007C90.3666 130.982 92.5696 132.771 93.1139 135.285L107.784 204.08C108.509 207.449 105.918 210.638 102.47 210.638H23.2899C20.698 210.638 18.4691 208.797 17.9766 206.257L4.60276 137.462C3.92888 134.093 6.49477 130.982 9.916 130.982Z" fill="#B2B2B2"/>
<path d="M5.43217 130.982H83.2909C85.8568 130.982 88.0601 132.771 88.6044 135.285L103.274 204.08C104 207.449 101.434 210.638 97.9607 210.638H18.806C16.2142 210.638 13.9853 208.797 13.4928 206.257L0.118931 137.462C-0.554947 134.093 2.01095 130.982 5.43217 130.982Z" fill="#D1D1D1"/>
<path d="M105.659 204.756H158.869C160.502 204.756 161.798 206.078 161.798 207.685C161.798 209.318 160.476 210.614 158.869 210.614H104.622L105.659 204.756Z" fill="#B2B2B2"/>
<path d="M53.6408 169.004C53.6408 173.696 49.8567 177.481 45.1655 177.481C40.4742 177.481 36.6902 173.67 36.6902 169.004C36.6902 164.313 40.5002 160.528 45.1655 160.528C49.8567 160.528 53.6408 164.313 53.6408 169.004Z" fill="white"/>
<path d="M192.122 113.678L220.581 159.636L152.468 183.95L161.798 204.116C161.798 204.116 220.036 197.584 248.184 175.888C250.776 173.892 252.072 170.652 251.631 167.412C250.309 157.044 244.659 131.874 220.581 96.1033C215.682 88.8195 205.937 86.6162 198.343 91.0228C190.438 95.5849 187.664 105.694 192.122 113.678Z" fill="#F7EBE7"/>
<path d="M170.584 177.481L220.58 159.648L195.569 119.237" stroke="#EADDD8" stroke-width="0.7599" stroke-miterlimit="10" stroke-linecap="round" stroke-linejoin="round"/>
<path d="M136.734 162.252L124.423 129.747" stroke="#EADDD8" stroke-width="0.7599" stroke-miterlimit="10" stroke-linecap="round" stroke-linejoin="round"/>
<path d="M171.387 202.753C171.387 202.753 209.643 197.958 228.926 186.915" stroke="#EADDD8" stroke-width="0.7599" stroke-miterlimit="10" stroke-linecap="round" stroke-linejoin="round"/>
</svg>
