<svg width="48" height="49" viewBox="0 0 48 49" fill="none" xmlns="http://www.w3.org/2000/svg">
<path fill-rule="evenodd" clip-rule="evenodd" d="M24 0.820068C10.7452 0.820068 0 11.5652 0 24.8201C0 38.0749 10.7452 48.8201 24 48.8201C37.2548 48.8201 48 38.0749 48 24.8201C48 11.5652 37.2548 0.820068 24 0.820068ZM11.5216 20.6979H16.9605V37.0396H11.5216V20.6979ZM17.3188 15.6428C17.2835 14.0405 16.1377 12.8201 14.277 12.8201C12.4164 12.8201 11.2 14.0405 11.2 15.6428C11.2 17.2119 12.3805 18.4674 14.2064 18.4674H14.2412C16.1377 18.4674 17.3188 17.2119 17.3188 15.6428ZM30.3131 20.3142C33.8922 20.3142 36.5754 22.6503 36.5754 27.6698L36.5752 37.0396H31.1365V28.2968C31.1365 26.1008 30.3494 24.6023 28.3805 24.6023C26.8779 24.6023 25.9829 25.6125 25.5898 26.5882C25.446 26.9379 25.4107 27.4251 25.4107 27.9135V37.0401H19.9711C19.9711 37.0401 20.0428 22.2318 19.9711 20.6984H25.4107V23.013C26.1325 21.9003 27.4254 20.3142 30.3131 20.3142Z" fill="white"/>
</svg>
