<svg class="logo_svg" width="202" height="140" viewBox="0 0 202 140" fill="none" xmlns="http://www.w3.org/2000/svg">
<path d="M25.6 -9.53674e-06H106.6L56.6 80V140H50.6V80L0.6 -9.53674e-06H7.6L53.6 73.4L95.8 6H25.6V-9.53674e-06ZM137.58 134H192.78L168.58 67.6L179.78 61.2C188.98 56.1333 193.58 48.0667 193.58 37C193.58 16.3333 177.846 6 146.38 6H127.98V140H121.98V-9.53674e-06H146.38C163.98 -9.53674e-06 177.246 3.26666 186.18 9.8C195.113 16.2 199.58 25.2667 199.58 37C199.58 50.3333 193.98 60.1333 182.78 66.4L175.98 70.2L201.38 140H137.58V134Z" fill="white"/>
</svg>
