<svg width="114" height="352" viewBox="0 0 114 352" fill="none" xmlns="http://www.w3.org/2000/svg">
<path d="M75.6362 271.943C78.6434 271.943 81.0869 274.356 81.1355 277.352L81.1362 277.443V334.443C81.1362 337.48 78.6738 339.943 75.6362 339.943C72.629 339.943 70.1855 337.529 70.137 334.533L70.1362 334.443V277.443C70.1362 274.405 72.5987 271.943 75.6362 271.943Z" fill="#EBBAAA"/>
<path d="M38.6362 271.943C41.6434 271.943 44.0869 274.356 44.1355 277.352L44.1362 277.443V338.818C44.1362 341.855 41.6738 344.318 38.6362 344.318C35.629 344.318 33.1855 341.904 33.137 338.908L33.1362 338.818V277.443C33.1362 274.405 35.5987 271.943 38.6362 271.943Z" fill="#EBBAAA"/>
<path d="M58.7188 243.25C74.597 243.25 87.4688 236.702 87.4688 228.625C87.4688 220.548 74.597 214 58.7188 214C42.8405 214 29.9688 220.548 29.9688 228.625C29.9688 236.702 42.8405 243.25 58.7188 243.25Z" fill="#4D5457"/>
<path d="M57.7188 221.192H23.9688L25.6903 300.248L27.6902 307.3H47.0653L49.7188 298.625L57.7188 221.192Z" fill="#4D5457"/>
<path d="M57.3975 222.697H91.2617L88.8437 298.125L85.5937 307.058L66.5937 308.73L64.7785 300.125L57.3975 222.697Z" fill="#4D5457"/>
<path d="M26.9688 306.25H47.4688V312.25H28.1545L26.9688 306.25Z" fill="#434A4C"/>
<path d="M65.4688 306.75H85.9688L84.9688 312.25H66.4045L65.4688 306.75Z" fill="#434A4C"/>
<path d="M30.9488 232.293C29.0728 231.893 24.816 229.668 24.0945 230.043C22.1104 231.793 23.3731 276.293 24.4553 277.668C25.5375 279.043 34.7365 279.543 34.7365 277.668C34.7365 275.793 34.917 269.293 34.7365 264.168C34.5563 259.043 37.6225 233.418 36.1795 233.043C34.7365 232.668 33.2935 232.793 30.9488 232.293Z" fill="#2F3034"/>
<path d="M33.2933 234.167C31.8503 234.042 25.8978 232.292 24.0942 231.167C22.8315 232.292 20.6671 240.042 23.0119 241.042C25.3568 242.042 31.4895 241.917 32.211 241.042C32.9325 240.167 34.7362 234.292 33.2933 234.167Z" fill="#3B4345"/>
<path fill-rule="evenodd" clip-rule="evenodd" d="M32.8738 235.572L32.6311 235.512L32.5459 235.853C32.457 236.205 32.3582 236.587 32.2581 236.963L32.4996 237.028L32.5993 236.65C32.6979 236.273 32.7923 235.902 32.8738 235.572ZM32.0982 238.476L31.8581 238.406L31.7922 238.63C31.6412 239.138 31.5091 239.544 31.4019 239.824L31.6353 239.913L31.6838 239.783C31.8005 239.461 31.9403 239.018 32.0982 238.476ZM28.8181 240.561C29.3625 240.532 29.8766 240.484 30.3008 240.424L30.3359 240.672C29.9041 240.733 29.3826 240.781 28.8312 240.81L28.8181 240.561ZM27.3253 240.587C26.8024 240.578 26.3017 240.548 25.8395 240.498L25.8123 240.746C26.2825 240.798 26.7907 240.828 27.3208 240.837L27.3253 240.587ZM23.4442 239.815C23.6787 239.977 23.9953 240.115 24.3853 240.228L24.3158 240.468C23.9018 240.349 23.5612 240.2 23.3018 240.02L23.4442 239.815Z" fill="#393434"/>
<path fill-rule="evenodd" clip-rule="evenodd" d="M24.5052 230.678L24.4053 230.907L24.986 231.158C25.2418 231.267 25.5122 231.381 25.7872 231.496L25.8835 231.265L25.2391 230.994C24.9785 230.883 24.7306 230.776 24.5052 230.678ZM27.2698 231.832L27.1771 232.064L27.5469 232.211C27.9107 232.354 28.2564 232.486 28.5789 232.606L28.6661 232.372C28.2381 232.213 27.7687 232.031 27.2698 231.832ZM30.7466 233.291C30.5596 233.258 30.3108 233.194 30.0037 233.099L30.0771 232.86C30.3154 232.934 30.5164 232.988 30.6767 233.022L30.7893 233.044C30.9168 233.066 31.0611 233.09 31.2212 233.115L31.5262 233.163L31.4888 233.41C31.345 233.388 31.211 233.367 31.0871 233.347L30.7466 233.291ZM33.0093 233.373L32.9757 233.621L33.5653 233.7C33.864 233.74 34.1667 233.779 34.464 233.817L34.4956 233.569L33.8974 233.492C33.5974 233.452 33.2983 233.413 33.0093 233.373ZM34.965 235.97L35.0933 234.476L35.3424 234.497L35.2141 235.991L34.965 235.97ZM34.8369 237.465L34.7091 238.96L34.9582 238.981L35.086 237.486L34.8369 237.465ZM34.4546 241.948L34.5817 240.454L34.8308 240.475L34.7037 241.969L34.4546 241.948ZM34.3277 243.442L34.2013 244.937L34.4504 244.958L34.5768 243.463L34.3277 243.442ZM33.9497 247.927L34.0752 246.432L34.3244 246.453L34.1988 247.948L33.9497 247.927ZM33.825 249.421L33.7009 250.916L33.9501 250.937L34.0741 249.442L33.825 249.421ZM33.4572 253.907L33.5781 252.412L33.8272 252.432L33.7064 253.927L33.4572 253.907ZM33.3406 255.404C33.311 255.822 33.2859 256.324 33.2651 256.906L33.515 256.915L33.5313 256.496C33.5484 256.091 33.5679 255.733 33.59 255.421L33.3406 255.404ZM33.2245 258.407L33.4744 258.412C33.4691 258.679 33.4644 258.957 33.4603 259.245L33.452 259.912L33.202 259.909C33.2053 259.605 33.2091 259.311 33.2135 259.027L33.2245 258.407ZM33.4412 261.411L33.1912 261.41L33.1889 262.297C33.1887 262.499 33.1887 262.703 33.1888 262.911L33.4388 262.911L33.4394 261.998C33.4398 261.799 33.4404 261.604 33.4412 261.411ZM33.1927 264.411L33.4427 264.41L33.4445 264.779L33.4518 265.91L33.2018 265.912L33.1991 265.53L33.1927 264.411ZM33.2151 267.412L33.2259 268.408L33.232 268.913L33.482 268.909L33.4651 267.41L33.2151 267.412ZM33.2749 271.912C33.2668 271.41 33.2592 270.911 33.2521 270.412L33.502 270.409L33.5248 271.908L33.2749 271.912ZM33.3 273.412L33.3272 274.912L33.5772 274.907L33.55 273.407L33.3 273.412ZM32.259 277.27C32.7945 277.024 33.1604 276.675 33.3013 276.352L33.5304 276.452C33.3638 276.834 32.9523 277.226 32.3635 277.497L32.259 277.27ZM30.8458 277.622C30.3995 277.662 29.9082 277.653 29.3717 277.591L29.343 277.839C29.896 277.903 30.4044 277.912 30.8681 277.871L30.8458 277.622ZM26.4852 276.878C26.9815 277.055 27.4557 277.2 27.9078 277.315L27.8463 277.557C27.3864 277.441 26.9048 277.293 26.4012 277.114L26.4852 276.878Z" fill="#393434"/>
<path d="M86.183 232.293C87.7573 231.893 91.3295 229.668 91.9348 230.043C93.5998 231.793 92.5403 276.293 91.632 277.668C90.7238 279.043 83.0045 279.543 83.0045 277.668C83.0045 275.793 82.8533 269.293 83.0045 264.168C83.1558 259.043 80.5828 233.418 81.7935 233.043C83.0045 232.668 84.2155 232.793 86.183 232.293Z" fill="#2F3034"/>
<path d="M84.2155 234.167C85.4262 234.042 90.4212 232.292 91.9347 231.167C92.9942 232.292 94.8105 240.042 92.843 241.042C90.8752 242.042 85.729 241.917 85.1235 241.042C84.518 240.167 83.0045 234.292 84.2155 234.167Z" fill="#3B4345"/>
<path fill-rule="evenodd" clip-rule="evenodd" d="M84.5469 235.568L84.7917 235.517C84.8835 235.959 84.9947 236.476 85.1078 236.982L84.8638 237.036C84.7929 236.719 84.7228 236.398 84.6577 236.094L84.5469 235.568ZM85.2047 238.499L85.4475 238.44C85.6023 239.072 85.7355 239.564 85.8391 239.878L85.6017 239.956C85.5143 239.692 85.4076 239.308 85.2854 238.824L85.2047 238.499ZM86.9094 240.705C87.3568 240.77 87.8816 240.814 88.4179 240.832L88.4261 240.582C87.8987 240.565 87.3831 240.521 86.945 240.458L86.9094 240.705ZM91.439 240.564C91.003 240.682 90.4947 240.761 89.9346 240.803L89.9156 240.554C90.4612 240.513 90.9545 240.436 91.3741 240.323L91.439 240.564Z" fill="#393434"/>
<path fill-rule="evenodd" clip-rule="evenodd" d="M91.5744 230.682L91.6898 230.903C91.3843 231.062 91.0323 231.242 90.6659 231.425L90.3491 231.582L90.2383 231.358C90.609 231.175 90.9747 230.99 91.303 230.822L91.5744 230.682ZM88.8895 232.008L88.9953 232.234C88.484 232.473 88.0206 232.68 87.6208 232.847L87.5244 232.617C87.8414 232.484 88.1994 232.326 88.5903 232.146L88.8895 232.008ZM86.1748 233.327L86.1268 233.082L85.9579 233.114C85.605 233.181 85.1625 233.257 84.6532 233.341L84.6936 233.587L85.1818 233.506C85.5687 233.44 85.904 233.38 86.1748 233.327ZM82.4175 233.686L83.1728 233.573L83.2103 233.821L82.6836 233.899L82.7366 234.633L82.4872 234.651L82.4175 233.686ZM82.595 236.148L82.7025 237.644L82.9519 237.626L82.8443 236.13L82.595 236.148ZM82.9168 240.636L82.8098 239.14L83.0592 239.122L83.1662 240.618L82.9168 240.636ZM83.0237 242.132L83.1302 243.628L83.3795 243.61L83.273 242.114L83.0237 242.132ZM83.3422 246.62L83.2363 245.124L83.4857 245.106L83.5916 246.603L83.3422 246.62ZM83.4475 248.116L83.5523 249.612L83.8017 249.595L83.6969 248.099L83.4475 248.116ZM83.7595 252.605L83.6565 251.109L83.9059 251.092L84.0089 252.588L83.7595 252.605ZM83.8607 254.102L83.9392 255.3C83.9453 255.395 83.9511 255.494 83.9567 255.598L84.2063 255.584L84.1887 255.284L84.1102 254.085L83.8607 254.102ZM84.0148 257.093L84.2647 257.086C84.271 257.313 84.2768 257.553 84.2821 257.803L84.2965 258.587L84.0465 258.591C84.0401 258.183 84.0326 257.8 84.0239 257.442L84.0148 257.093ZM84.314 260.088L84.064 260.09L84.0701 261.074C84.0709 261.243 84.0716 261.415 84.0721 261.589L84.3221 261.588L84.3174 260.572C84.3164 260.408 84.3153 260.247 84.314 260.088ZM84.0734 263.089L84.3234 263.089C84.3233 263.283 84.3229 263.48 84.3225 263.679L84.3196 264.589L84.0696 264.588L84.0707 264.281L84.0734 263.089ZM84.0615 266.089L84.0499 267.588L84.2999 267.59L84.3115 266.09L84.0615 266.089ZM84.0183 270.588L84.0354 269.088L84.2854 269.091L84.2683 270.591L84.0183 270.588ZM83.9989 272.087L83.9775 273.587L84.2275 273.591L84.2489 272.091L83.9989 272.087ZM83.9546 275.086L84.2046 275.09C84.1939 275.773 84.1902 276.017 84.1893 276.122L84.1908 276.201C84.199 276.283 84.2356 276.393 84.299 276.51L84.0789 276.629C83.9883 276.461 83.9391 276.297 83.9391 276.167L83.9546 275.086ZM85.2889 277.639C85.7229 277.814 86.233 277.904 86.817 277.895L86.8133 277.645C86.2618 277.654 85.7847 277.57 85.3823 277.407L85.2889 277.639ZM89.7636 277.214C89.2554 277.418 88.7748 277.575 88.3215 277.687L88.2617 277.444C88.7033 277.335 89.1728 277.182 89.6704 276.982L89.7636 277.214Z" fill="#393434"/>
<path d="M0.254882 344.125C0.379084 343.325 0.0178769 342.773 1.89278 342.023C3.76767 341.273 25.8927 345.148 25.8927 345.148C31.5882 344.685 46.8857 337.218 52.5177 340.648C54.2995 341.733 53.6957 345.17 53.038 348.388C51.9855 349.46 41.338 350.398 37.8857 349.595C37.8857 347.718 37.617 346.51 37.617 346.51C37.617 346.51 35.5255 347.863 33.2677 348.388C28.663 349.46 28.0175 349.5 13.7549 349.5C2.31579 348.428 0.13069 344.925 0.254882 344.125Z" fill="#52493F"/>
<path d="M33.6068 310.125C34.8255 310.125 41.9363 313.858 45.6258 310.963C46.0313 310.645 46.8565 310.905 46.8573 311.42C46.8638 316.395 46.9375 325.045 47.6825 328.475C48.4718 332.11 49.138 331.59 49.9273 334.965C50.4738 337.303 52.2435 342.755 49.9273 342.755H39.3638C36.8645 342.755 33.4888 345.658 25.1661 346.473C11.3506 347.828 7.97451 345.973 5.21596 345.098C-1.06059 343.108 2.12464 338.553 5.21596 337.098C9.74453 334.965 16.2347 333.365 19.536 331.598C22.1067 330.223 22.9895 329.795 24.3094 328.348C26.4853 325.963 28.3968 313.415 28.6923 310.138C28.7128 309.91 29.033 309.793 29.2278 309.913C30.515 310.705 32.3985 310.125 33.6068 310.125Z" fill="#766464"/>
<path d="M5.97662 341.052C6.11643 340.589 6.60477 340.328 7.06735 340.467L7.42767 340.575C8.95305 341.026 10.0295 341.267 11.3973 341.414C13.4003 341.63 15.5237 341.53 17.8794 341.036C18.3524 340.937 18.8162 341.24 18.9154 341.713C19.0145 342.186 18.7115 342.65 18.2386 342.749C15.7016 343.281 13.3939 343.389 11.2102 343.154C9.60608 342.982 8.37828 342.692 6.56104 342.143C6.09846 342.003 5.8368 341.514 5.97662 341.052Z" fill="#BDAFAF"/>
<path d="M22.8567 336.25C25.3045 334 34.2318 328.972 33.6068 310.125C34.6675 310.125 37.2318 311.5 41.1068 311.75C45.176 311.628 45.1093 311.26 46.1868 310.65C46.216 310.632 46.25 310.608 46.2778 310.59C47.9678 309.452 47.2078 327.628 48.4208 330.847C49.4 333.448 51.2358 337.347 51.2358 342.097C50.379 343.597 41.934 342.847 39.2413 342.847C37.9818 336.125 28.1068 341.25 25.9818 340.625C24.1165 340.077 22.8567 339 22.8567 336.25Z" fill="#473E3E"/>
<path d="M25.8568 328.15C28.6568 325.95 29.7318 315.25 29.8568 310.125C29.3568 310 29.2318 309.65 28.8568 309.775C28.4818 309.9 28.4818 311.4 28.3568 312.65C28.2198 314.02 27.2318 318.275 26.7318 321.15C26.2318 324.025 25.7318 325.775 23.8567 328.15C22.3567 330.05 16.4817 332 14.6067 333.625C14.815 333.582 15.3567 333.3 15.8567 333.4C16.4817 333.525 16.3567 333.65 17.1067 333.65C17.8567 333.65 22.3567 330.9 25.8568 328.15Z" fill="#473E3E"/>
<path d="M29.232 310.5L29.2744 310.501L34.7617 310.876C35.106 310.9 35.3661 311.198 35.3426 311.543C35.32 311.873 35.0442 312.126 34.7175 312.125L34.6764 312.124L34.0821 312.083L34.6795 312.282C35.2482 312.472 35.2449 313.267 34.6957 313.462L34.6535 313.476L30.9228 314.542L33.8927 316.069C34.4098 316.335 34.312 317.093 33.7622 317.231L33.7211 317.239L30.4808 317.842L33.8366 319.169C34.3689 319.379 34.3575 320.127 33.8388 320.331L33.7968 320.345L29.4271 321.74L33.2505 323.561C33.8031 323.824 33.6839 324.633 33.0979 324.739L33.0563 324.746L28.3533 325.31L31.6068 327.75C32.0764 328.102 31.8436 328.84 31.2722 328.874L31.2318 328.875H26.2713L29.6675 332.177C30.1089 332.606 29.7291 333.339 29.1364 333.243L29.0982 333.236L22.6893 331.834L25.2394 335.386C25.6108 335.903 25.0629 336.57 24.4916 336.327L24.4566 336.311L18.0816 333.186C17.7717 333.034 17.6436 332.66 17.7955 332.35C17.9411 332.053 18.291 331.923 18.5927 332.046L18.6318 332.064L22.7731 334.094L20.724 331.24C20.3975 330.785 20.7872 330.171 21.3273 330.257L21.3653 330.264L27.2256 331.546L24.296 328.698C23.9033 328.316 24.1578 327.657 24.6921 327.626L24.7317 327.625H29.3568L26.3568 325.375C25.9172 325.045 26.0886 324.357 26.6161 324.261L26.6573 324.254L30.7646 323.762L27.4631 322.189C26.9654 321.952 26.9998 321.242 27.4991 321.045L27.5418 321.03L31.7481 319.687L28.002 318.206C27.4322 317.981 27.4973 317.165 28.0753 317.02L28.1175 317.011L31.6953 316.345L28.946 314.931C28.4554 314.679 28.5119 313.968 29.0181 313.788L29.0601 313.774L32.3678 312.829L29.0342 311.718C28.3653 311.495 28.5276 310.531 29.1907 310.5L29.232 310.5Z" fill="#272222"/>
<path d="M30.546 311.54C30.8002 311.306 31.1955 311.323 31.429 311.577C31.6626 311.831 31.6458 312.227 31.3916 312.46C27.8762 315.69 23.002 321.504 21.917 323.999C21.7793 324.316 21.4111 324.461 21.0946 324.323C20.778 324.186 20.633 323.817 20.7706 323.501C21.9423 320.806 26.912 314.878 30.546 311.54Z" fill="#272222"/>
<path d="M21.0318 323.542C21.1467 323.37 21.3795 323.323 21.5518 323.438C21.7241 323.553 21.7707 323.786 21.6558 323.958L21.5796 324.074C21.5229 324.162 21.4685 324.251 21.3887 324.383L21.1921 324.708C21.1377 324.795 21.0899 324.869 21.0308 324.958C20.9159 325.13 20.6831 325.177 20.5108 325.062C20.3385 324.947 20.2919 324.714 20.4068 324.542L20.483 324.426C20.5396 324.338 20.594 324.249 20.6739 324.117L20.8704 323.793C20.9249 323.705 20.9727 323.631 21.0318 323.542Z" fill="#766464"/>
<path d="M31.5786 311.637C31.8482 311.421 32.2415 311.465 32.457 311.735C33.8137 313.432 35.49 316.1 36.4226 318.389C36.5528 318.709 36.3993 319.074 36.0796 319.204C35.7599 319.334 35.3952 319.181 35.265 318.861C34.3833 316.697 32.7682 314.126 31.4806 312.515C31.265 312.246 31.3089 311.852 31.5786 311.637Z" fill="#272222"/>
<path d="M35.801 318.415C35.9862 318.322 36.2115 318.397 36.3041 318.582L36.3383 318.648C36.3549 318.679 36.3739 318.713 36.3974 318.753L36.7052 319.274C36.7457 319.344 36.7751 319.399 36.8041 319.457C36.8967 319.642 36.8217 319.868 36.6364 319.96C36.4512 320.053 36.2259 319.978 36.1333 319.793L36.0991 319.727C36.0825 319.696 36.0635 319.662 36.04 319.621L35.7322 319.101C35.6918 319.031 35.6624 318.976 35.6333 318.918C35.5407 318.732 35.6158 318.507 35.801 318.415Z" fill="#766464"/>
<path d="M2.44456 347.693C1.55942 347.485 1.8579 345.998 2.21449 345.02C2.94713 345.233 4.42705 346.085 4.41393 346.708C4.38073 348.285 3.55098 347.95 2.44456 347.693Z" fill="#52493F"/>
<path d="M0.663115 346.01C0.336622 345.835 0.476211 344.005 0.967655 343.045C2.1318 343.31 2.7216 344.688 2.7216 344.688C2.7216 344.688 3.08253 345.7 2.29412 346.305C1.97445 346.423 1.15872 346.273 0.663115 346.01Z" fill="#52493F"/>
<path d="M4.52752 348.832C3.53947 348.635 4.0194 346.622 4.38285 345.642C5.20202 345.85 6.80805 346.575 6.6788 347.832C6.51722 349.405 5.7626 349.082 4.52752 348.832Z" fill="#52493F"/>
<path d="M7.24585 349.66C6.1514 349.562 6.4478 347.513 6.73282 346.5C7.6448 346.623 9.46875 347.18 9.46875 348.445C9.46875 350.025 8.61392 349.78 7.24585 349.66Z" fill="#52493F"/>
<path d="M10.1254 350.16C8.8485 350.062 9.1943 348.013 9.52683 347C10.5908 347.123 12.7188 347.68 12.7188 348.945C12.7188 350.525 11.7215 350.28 10.1254 350.16Z" fill="#52493F"/>
<path d="M13.2458 350.66C12.1514 350.562 12.4478 348.513 12.7328 347.5C13.6448 347.623 15.4687 348.18 15.4687 349.445C15.4687 351.025 14.6139 350.78 13.2458 350.66Z" fill="#52493F"/>
<path d="M16.1254 350.91C14.8485 350.812 15.1943 348.763 15.5268 347.75C16.5908 347.873 18.7188 348.43 18.7188 349.695C18.7188 351.275 17.7215 351.03 16.1254 350.91Z" fill="#52493F"/>
<path d="M19.3754 351.16C18.0985 351.062 18.4443 349.013 18.7768 348C19.8408 348.123 21.9688 348.68 21.9688 349.945C21.9688 351.525 20.9715 351.28 19.3754 351.16Z" fill="#52493F"/>
<path d="M22.6769 351.317C21.5785 351.342 21.6437 349.272 21.8136 348.235C22.1827 348.242 23.6566 347.82 24.1597 347.97C24.9101 348.197 24.6652 349.11 24.7499 349.862C24.9267 351.432 24.05 351.285 22.6769 351.317Z" fill="#52493F"/>
<path d="M25.6037 351.067C24.5052 351.092 24.5704 349.022 24.7403 347.985C25.1095 347.992 26.5835 347.57 27.0865 347.72C27.8367 347.947 27.592 348.86 27.6767 349.612C27.8535 351.182 26.9767 351.035 25.6037 351.067Z" fill="#52493F"/>
<path d="M28.3537 350.73C27.2552 350.755 27.3205 348.685 27.4902 347.648C27.8595 347.655 29.3335 347.23 29.8365 347.383C30.5867 347.61 30.342 348.52 30.4267 349.273C30.6035 350.843 29.7267 350.698 28.3537 350.73Z" fill="#52493F"/>
<path d="M31.1037 350.23C30.0052 350.255 30.0705 348.185 30.2402 347.148C30.6095 347.155 32.0835 346.73 32.5865 346.883C33.3367 347.11 33.092 348.02 33.1767 348.773C33.3535 350.343 32.4767 350.198 31.1037 350.23Z" fill="#52493F"/>
<path d="M33.6037 349.48C32.5052 349.505 32.5705 347.435 32.7402 346.398C33.1095 346.405 34.5835 345.98 35.0865 346.133C35.8367 346.36 35.592 347.27 35.6767 348.023C35.8535 349.593 34.9767 349.448 33.6037 349.48Z" fill="#52493F"/>
<path d="M36.1037 348.98C35.0052 349.005 35.0705 346.935 35.2402 345.898C35.6095 345.905 37.0835 345.48 37.5865 345.633C38.3367 345.86 38.092 346.77 38.1767 347.523C38.3535 349.093 37.4767 348.948 36.1037 348.98Z" fill="#52493F"/>
<path d="M52.638 342.292L52.8249 342.458C51.8474 343.558 50.7124 343.965 47.3762 344.498C45.3371 344.825 41.5834 344.767 38.5155 344.514L38.37 344.502L37.6666 344.718C36.5922 345.046 35.0356 345.51 33.2779 346.023L32.5163 346.245C27.7773 347.621 21.2663 348.5 13.8564 348.5C11.0382 348.5 8.26276 347.87 5.77523 346.787C3.79417 345.923 2.12095 344.808 1.31461 343.893L1.26099 343.831L1.45183 343.669C2.20808 344.563 3.88135 345.689 5.87509 346.557C8.33237 347.628 11.0741 348.25 13.8564 348.25C21.1434 348.25 27.5554 347.398 32.2545 346.06L34.342 345.451C35.8688 345.001 37.1712 344.61 38.0278 344.346L38.3193 344.256L38.3671 344.25L38.7059 344.278C41.7227 344.518 45.3603 344.568 47.3367 344.252L47.7412 344.186C50.6235 343.707 51.6873 343.315 52.5593 342.379L52.638 342.292Z" fill="#67513B"/>
<path d="M29.6104 310.625C29.9555 310.619 30.2401 310.894 30.2459 311.239C30.2516 311.571 29.9983 311.846 29.6727 311.873L29.6316 311.875C28.6058 311.892 26.7645 313.035 25.3742 314.575C23.8552 316.258 23.2366 317.958 23.805 319.096C24.2797 320.045 24.7246 320.333 25.1988 320.217C25.722 320.089 26.3843 319.496 27.0795 318.514C28.3408 316.732 29.6016 313.775 30.0099 311.869C30.0822 311.532 30.4145 311.317 30.752 311.389C31.0895 311.461 31.3045 311.793 31.2321 312.131C30.7892 314.198 29.4616 317.312 28.0998 319.236C27.246 320.442 26.3842 321.214 25.4961 321.431C24.3719 321.706 23.3971 321.075 22.6869 319.654C21.8287 317.937 22.6208 315.76 24.4464 313.738C26.0462 311.966 28.1662 310.65 29.6104 310.625Z" fill="#272222"/>
<path d="M30.7956 311.87C30.8675 311.532 31.1995 311.317 31.5371 311.389C31.8747 311.461 32.0901 311.793 32.0182 312.13C31.7936 313.185 31.769 317.343 32.041 320.683C32.2048 322.695 32.4618 324.394 32.8058 325.604C32.9876 326.244 33.1897 326.731 33.4 327.043C33.5647 327.288 33.6914 327.375 33.7819 327.375C36.6797 327.375 38.5166 325.746 38.6418 323.157C38.7851 320.197 36.7413 316.458 32.6197 312.845C32.3601 312.617 32.3342 312.223 32.5617 311.963C32.7893 311.703 33.1842 311.677 33.4437 311.905C37.8266 315.748 40.0546 319.823 39.8904 323.218C39.7319 326.493 37.3277 328.625 33.7819 328.625C32.0186 328.625 31.1985 325.738 30.7951 320.785L30.7746 320.524C30.5154 317.121 30.5455 313.045 30.7956 311.87Z" fill="#272222"/>
<path d="M113.714 344.125C113.589 343.325 113.951 342.773 112.074 342.023C110.197 341.273 88.0487 345.148 88.0487 345.148C82.347 344.685 67.0335 337.218 61.3952 340.648C59.6115 341.733 60.216 345.17 60.8745 348.388C61.9282 349.46 72.587 350.398 76.043 349.595C76.043 347.718 76.312 346.51 76.312 346.51C76.312 346.51 78.4057 347.863 80.6657 348.388C85.2755 349.46 85.9217 349.5 100.199 349.5C111.651 348.428 113.838 344.925 113.714 344.125Z" fill="#52493F"/>
<path d="M80.3268 310.125C79.1065 310.125 71.9858 313.858 68.2928 310.96C67.8873 310.643 67.0628 310.903 67.0623 311.42C67.0555 316.393 66.9818 325.045 66.236 328.475C65.4458 332.11 64.7788 331.59 63.9888 334.965C63.4418 337.303 61.6703 342.755 63.9888 342.755H74.5635C77.0655 342.755 80.4448 345.658 88.7763 346.473C102.607 347.828 105.986 345.973 108.748 345.098C115.031 343.108 111.842 338.553 108.748 337.098C104.214 334.965 97.7173 333.365 94.4125 331.598C91.839 330.223 90.9553 329.795 89.634 328.348C87.4558 325.963 85.542 313.415 85.2465 310.138C85.226 309.91 84.9058 309.793 84.7113 309.913C83.4225 310.705 81.5365 310.125 80.3268 310.125Z" fill="#766464"/>
<path d="M106.895 340.467C107.357 340.328 107.846 340.59 107.985 341.052C108.125 341.515 107.863 342.003 107.4 342.143C105.581 342.692 104.352 342.982 102.747 343.154C100.561 343.389 98.2509 343.281 95.7114 342.749C95.2384 342.65 94.9353 342.186 95.0344 341.713C95.1335 341.24 95.5972 340.937 96.0702 341.036C98.4286 341.53 100.554 341.63 102.56 341.414C104.035 341.256 105.171 340.988 106.895 340.467Z" fill="#BDAFAF"/>
<path d="M91.088 336.25C88.6375 334 79.701 328.972 80.3265 310.125C79.2647 310.125 76.6977 311.5 72.8185 311.75C68.7447 311.628 68.8117 311.26 67.733 310.65C67.7037 310.632 67.6697 310.608 67.642 310.59C65.95 309.452 66.711 327.628 65.4967 330.847C64.5165 333.448 62.6785 337.347 62.6785 342.097C63.5362 343.597 71.9905 342.847 74.686 342.847C75.947 336.125 85.8325 341.25 87.9597 340.625C89.8267 340.077 91.088 339 91.088 336.25Z" fill="#473E3E"/>
<path d="M88.0851 328.15C85.2821 325.95 84.2061 315.25 84.0808 310.125C84.5813 310 84.7066 309.65 85.0821 309.775C85.4573 309.9 85.4573 311.4 85.5826 312.65C85.7196 314.02 86.7088 318.275 87.2093 321.15C87.7098 324.025 88.2103 325.775 90.0873 328.15C91.5888 330.05 97.4701 332 99.3471 333.625C99.1386 333.582 98.5963 333.3 98.0958 333.4C97.4701 333.525 97.5953 333.65 96.8446 333.65C96.0936 333.65 91.5888 330.9 88.0851 328.15Z" fill="#473E3E"/>
<path d="M84.6637 310.502C85.3816 310.452 85.5919 311.446 84.9437 311.703L84.9037 311.718L81.5665 312.829L84.8778 313.774C85.4085 313.926 85.4918 314.633 85.0305 314.91L84.9919 314.931L82.2393 316.345L85.8215 317.011C86.4241 317.123 86.5164 317.937 85.9765 318.189L85.9369 318.206L82.187 319.687L86.3976 321.03C86.923 321.197 86.985 321.906 86.5165 322.169L86.4763 322.189L83.1713 323.761L87.2834 324.254C87.8292 324.32 88.0252 325.002 87.6164 325.349L87.5838 325.375L84.5803 327.625H89.211C89.7589 327.625 90.0357 328.275 89.6741 328.67L89.6465 328.698L86.7135 331.547L92.5814 330.264C93.1283 330.145 93.5377 330.746 93.2439 331.208L93.2223 331.24L91.1708 334.094L95.3179 332.064C95.615 331.918 95.9712 332.03 96.134 332.312L96.1541 332.35C96.2996 332.647 96.1879 333.003 95.9054 333.166L95.8677 333.186L89.4859 336.311C88.9139 336.591 88.3474 335.94 88.6819 335.417L88.7035 335.385L91.2558 331.834L84.8397 333.236C84.2381 333.367 83.8367 332.646 84.2438 332.204L84.2708 332.177L87.6703 328.875H82.7043C82.1171 328.875 81.8605 328.144 82.2979 327.775L82.3295 327.75L85.586 325.31L80.8779 324.746C80.2701 324.673 80.1247 323.868 80.6463 323.58L80.6838 323.561L84.511 321.74L80.1367 320.346C79.5911 320.172 79.5521 319.424 80.056 319.186L80.097 319.169L83.4555 317.842L80.2123 317.24C79.6404 317.133 79.5166 316.379 80.0042 316.089L80.0409 316.069L83.0138 314.542L79.2793 313.476C78.7026 313.311 78.6713 312.516 79.2117 312.297L79.2533 312.282L79.8515 312.083L79.2556 312.124C78.925 312.146 78.6369 311.907 78.5936 311.584L78.5895 311.543C78.5669 311.212 78.8057 310.924 79.1296 310.881L79.1705 310.877L84.6637 310.502Z" fill="#272222"/>
<path d="M82.5068 311.577C82.7402 311.323 83.1356 311.306 83.3899 311.54L83.6119 311.745C87.2269 315.116 92.0262 320.86 93.1756 323.501C93.3134 323.817 93.1685 324.185 92.852 324.323C92.5355 324.461 92.1672 324.316 92.0295 323.999C90.9432 321.504 86.0637 315.69 82.5447 312.46C82.2904 312.227 82.2734 311.832 82.5068 311.577Z" fill="#272222"/>
<path d="M92.3943 323.438C92.5666 323.323 92.7994 323.37 92.9144 323.542L92.9969 323.667C93.0492 323.749 93.0992 323.829 93.165 323.938L93.39 324.309C93.4413 324.392 93.4855 324.46 93.5401 324.542C93.6551 324.714 93.6086 324.947 93.4364 325.062C93.2641 325.177 93.0312 325.13 92.9163 324.958L92.8338 324.833C92.7815 324.752 92.7315 324.671 92.6656 324.562L92.4407 324.191C92.3894 324.109 92.3451 324.04 92.2905 323.958C92.1756 323.786 92.222 323.553 92.3943 323.438Z" fill="#766464"/>
<path d="M81.478 311.735C81.6936 311.465 82.087 311.421 82.3565 311.637C82.626 311.853 82.6696 312.246 82.4539 312.516C81.1652 314.126 79.5482 316.697 78.6657 318.861C78.5354 319.181 78.1706 319.334 77.851 319.204C77.5313 319.073 77.3779 318.709 77.5082 318.389C78.4418 316.1 80.1201 313.431 81.478 311.735Z" fill="#272222"/>
<path d="M77.6267 318.582C77.7195 318.397 77.9448 318.322 78.13 318.415C78.3151 318.507 78.3901 318.733 78.2973 318.918L78.272 318.967C78.229 319.05 78.1792 319.136 78.0911 319.284L77.9089 319.589C77.8572 319.678 77.8253 319.736 77.7969 319.793C77.7043 319.978 77.479 320.053 77.2938 319.96C77.1086 319.868 77.0335 319.642 77.1261 319.457L77.1677 319.377C77.2019 319.313 77.2422 319.243 77.3019 319.142L77.4946 318.819C77.5587 318.711 77.5948 318.646 77.6267 318.582Z" fill="#766464"/>
<path d="M111.522 347.693C112.408 347.485 112.109 345.998 111.752 345.02C111.019 345.233 109.537 346.085 109.55 346.708C109.584 348.285 110.414 347.95 111.522 347.693Z" fill="#52493F"/>
<path d="M113.305 346.01C113.632 345.835 113.492 344.005 113 343.045C111.835 343.31 111.245 344.688 111.245 344.688C111.245 344.688 110.883 345.7 111.673 346.305C111.993 346.423 112.809 346.273 113.305 346.01Z" fill="#52493F"/>
<path d="M109.437 348.832C110.426 348.635 109.945 346.622 109.582 345.642C108.762 345.85 107.154 346.575 107.283 347.832C107.445 349.405 108.2 349.082 109.437 348.832Z" fill="#52493F"/>
<path d="M106.715 349.66C107.811 349.562 107.514 347.513 107.229 346.5C106.316 346.623 104.49 347.18 104.49 348.445C104.49 350.025 105.346 349.78 106.715 349.66Z" fill="#52493F"/>
<path d="M103.833 350.16C105.111 350.062 104.765 348.013 104.432 347C103.367 347.123 101.237 347.68 101.237 348.945C101.237 350.525 102.235 350.28 103.833 350.16Z" fill="#52493F"/>
<path d="M100.709 350.66C101.805 350.562 101.508 348.513 101.223 347.5C100.31 347.623 98.484 348.18 98.484 349.445C98.484 351.025 99.3398 350.78 100.709 350.66Z" fill="#52493F"/>
<path d="M97.8265 350.91C99.1047 350.812 98.7585 348.763 98.4255 347.75C97.3605 347.873 95.2302 348.43 95.2302 349.695C95.2302 351.275 96.2287 351.03 97.8265 350.91Z" fill="#52493F"/>
<path d="M94.5731 351.16C95.8513 351.062 95.5051 349.013 95.1723 348C94.1071 348.123 91.9768 348.68 91.9768 349.945C91.9768 351.525 92.9753 351.28 94.5731 351.16Z" fill="#52493F"/>
<path d="M91.268 351.317C92.3678 351.342 92.3025 349.272 92.1323 348.235C91.7628 348.242 90.2873 347.82 89.7838 347.97C89.0325 348.197 89.2778 349.11 89.193 349.862C89.016 351.432 89.8935 351.285 91.268 351.317Z" fill="#52493F"/>
<path d="M88.3383 351.067C89.438 351.092 89.3728 349.022 89.2025 347.985C88.833 347.992 87.3575 347.57 86.854 347.72C86.1028 347.947 86.3478 348.86 86.263 349.612C86.0863 351.182 86.9638 351.035 88.3383 351.067Z" fill="#52493F"/>
<path d="M85.5851 350.73C86.6848 350.755 86.6195 348.685 86.4493 347.648C86.0798 347.655 84.6043 347.23 84.1008 347.383C83.3496 347.61 83.5948 348.52 83.5101 349.273C83.3331 350.843 84.2106 350.698 85.5851 350.73Z" fill="#52493F"/>
<path d="M82.8325 350.23C83.932 350.255 83.8667 348.185 83.6967 347.148C83.3272 347.155 81.8517 346.73 81.348 346.883C80.597 347.11 80.842 348.02 80.7572 348.773C80.5802 350.343 81.458 350.198 82.8325 350.23Z" fill="#52493F"/>
<path d="M80.3296 349.48C81.4293 349.505 81.3641 347.435 81.1941 346.398C80.8243 346.405 79.3491 345.98 78.8453 346.133C78.0941 346.36 78.3393 347.27 78.2546 348.023C78.0776 349.593 78.9551 349.448 80.3296 349.48Z" fill="#52493F"/>
<path d="M77.8267 348.98C78.9264 349.005 78.8612 346.935 78.6909 345.898C78.3214 345.905 76.8459 345.48 76.3424 345.633C75.5912 345.86 75.8364 346.77 75.7514 347.523C75.5747 349.093 76.4522 348.948 77.8267 348.98Z" fill="#52493F"/>
<path d="M61.0881 342.458L61.2749 342.292L61.3538 342.378C62.2662 343.357 63.3888 343.741 66.582 344.252C68.5979 344.574 72.3401 344.516 75.3923 344.265L75.5611 344.25L75.6089 344.256L76.8991 344.65C78.0982 345.012 79.7156 345.491 81.4878 346.005C86.2088 347.374 92.7033 348.25 100.098 348.25C102.883 348.25 105.628 347.628 108.088 346.557C110.039 345.708 111.684 344.613 112.464 343.729L112.516 343.669L112.707 343.831C111.922 344.757 110.216 345.904 108.188 346.786C105.698 347.87 102.919 348.5 100.098 348.5C92.7805 348.5 86.3388 347.644 81.6115 346.301L79.8003 345.773C78.5747 345.413 77.4801 345.087 76.6248 344.828L75.558 344.501L75.4125 344.514C72.3984 344.762 68.7228 344.822 66.6577 344.516L66.5425 344.498L66.2655 344.454C63.2295 343.956 62.1045 343.551 61.1712 342.549L61.0881 342.458Z" fill="#67513B"/>
<path d="M84.3272 310.625C85.7725 310.65 87.8946 311.966 89.496 313.737C91.3235 315.759 92.1165 317.937 91.2572 319.655C90.5463 321.075 89.5708 321.706 88.4461 321.431C87.5574 321.214 86.6947 320.443 85.84 319.236C84.4769 317.312 83.1478 314.198 82.7045 312.131C82.6321 311.794 82.847 311.461 83.1845 311.389C83.522 311.317 83.8543 311.531 83.9267 311.869C84.3354 313.774 85.5974 316.732 86.86 318.514C87.556 319.496 88.2191 320.089 88.743 320.217C89.2184 320.333 89.6641 320.045 90.1394 319.095C90.7082 317.958 90.089 316.258 88.5686 314.576C87.2025 313.064 85.4014 311.935 84.3639 311.877L84.3059 311.875C83.9608 311.869 83.6858 311.585 83.6916 311.239C83.6975 310.894 83.982 310.619 84.3272 310.625Z" fill="#272222"/>
<path d="M82.3986 311.389C82.7362 311.317 83.0681 311.532 83.1401 311.87C83.3936 313.06 83.4212 317.226 83.1508 320.655L83.1157 321.08C82.7034 325.852 81.8802 328.625 80.151 328.625C76.6021 328.625 74.1955 326.493 74.0369 323.218C73.8725 319.823 76.103 315.747 80.4905 311.905C80.7502 311.677 81.145 311.704 81.3725 311.963C81.5999 312.223 81.5737 312.618 81.314 312.845C77.188 316.459 75.1421 320.197 75.2855 323.157C75.4108 325.746 77.2498 327.375 80.151 327.375C80.2421 327.375 80.3692 327.287 80.5341 327.043C80.7447 326.731 80.9469 326.244 81.1289 325.604C81.4733 324.394 81.7306 322.695 81.8946 320.683L81.9236 320.309C82.1648 317.04 82.134 313.147 81.9175 312.13C81.8456 311.793 82.061 311.461 82.3986 311.389Z" fill="#272222"/>
<path d="M21.0124 213.487L93.3358 208.429L94.9963 218.471C95.2691 220.121 94.2154 221.65 92.7338 221.754L23.463 226.598C21.9813 226.701 20.7251 225.334 20.7656 223.661L21.0124 213.487Z" fill="#81838E"/>
<path d="M15.6397 127.854C21.6849 114.278 31.565 115.302 35.763 115.816L27.9265 162.872L4.34395 177.5C-0.281199 171.125 5.82703 152.055 6.21885 150.5C7.53725 145.267 10.9795 138.321 15.6397 127.854Z" fill="#333742"/>
<path d="M101.734 128.043C95.6887 114.467 85.8087 115.491 81.6107 116.005L89.4472 163.061L112.094 154.375C111.469 152.375 110.986 151.18 110.594 149.625C109.275 144.392 106.394 138.51 101.734 128.043Z" fill="#343844"/>
<path d="M27.7925 124.141C28.8317 116.582 35.1725 111.038 42.8057 110.953L60.0505 110.762L75.94 112.436C83.2047 113.202 89.0987 118.844 90.0555 126.108C92.1405 141.939 95.3767 169.629 95.3767 188.987C95.3767 217.543 99.917 220.274 92.8872 224.015C85.8575 227.757 29.616 227.23 21.9372 221.43C14.2584 215.629 19.0328 209.585 19.0328 197.741C19.0328 189.015 24.7709 146.123 27.7925 124.141Z" fill="#383C48"/>
<path d="M57.8125 134.951C64.6298 134.951 70.1562 127.63 70.1562 118.6C70.1562 109.57 64.6298 102.25 57.8125 102.25C50.9953 102.25 45.4689 109.57 45.4689 118.6C45.4689 127.63 50.9953 134.951 57.8125 134.951Z" fill="#2E2A2B"/>
<rect x="49.4688" y="98.5" width="17.25" height="28.75" rx="8.625" fill="#EBBAAA"/>
<path d="M48.5956 135.862C40.4498 134.279 22.8852 117.069 32.0493 108.167C37.9041 100.749 47.3228 110.64 48.5956 115.585C49.6138 119.542 52.4141 129.268 54.1958 131.905C56.2323 133.801 56.7413 137.444 48.5956 135.862Z" fill="#85bae9"/>
<path d="M67.842 135.862C75.988 134.279 93.5525 117.069 84.3883 108.167C78.5335 100.749 69.115 110.64 67.842 115.585C66.824 119.542 64.0238 129.268 62.2418 131.905C60.2053 133.801 59.6963 137.444 67.842 135.862Z" fill="#85bae9"/>
<path d="M47.7955 129.967C48.7419 129.967 49.5128 130.718 49.5445 131.656L49.5455 131.717V166.609C49.5455 167.576 48.762 168.359 47.7955 168.359C46.8492 168.359 46.0783 167.608 46.0465 166.669L46.0455 166.609V131.717C46.0455 130.75 46.829 129.967 47.7955 129.967Z" fill="#2E2A2B"/>
<path d="M68.1262 129.967C69.0726 129.967 69.8435 130.718 69.8752 131.656L69.8762 131.717V171.884C69.8762 172.851 69.0927 173.634 68.1262 173.634C67.1799 173.634 66.4089 172.883 66.3772 171.944L66.3762 171.884V131.717C66.3762 130.75 67.1597 129.967 68.1262 129.967Z" fill="#2E2A2B"/>
<path d="M31.6913 195.233C32.91 188.442 38.8183 183.5 45.7173 183.5H57.6165H78.9712C80.6022 183.5 82.26 183.775 83.46 184.88C85.4777 186.737 88.4237 190.892 89.4787 199.737C91.144 213.7 89.4787 215.974 89.4787 215.974C89.4787 215.974 72.3058 220.5 57.6165 220.5C42.9273 220.5 27.9688 215.974 27.9688 215.974L30.883 199.737L31.6913 195.233Z" fill="#85bae9"/>
<path fill-rule="evenodd" clip-rule="evenodd" d="M81.3274 147.66C81.3274 147.33 81.2524 147.065 81.0624 146.88C80.9124 146.73 80.6824 146.63 80.3624 146.585L79.9324 146.525C79.8074 146.51 79.7324 146.465 79.6874 146.42C79.6324 146.365 79.6174 146.3 79.6174 146.255C79.6174 146.1 79.7424 145.925 80.0474 145.925L80.0749 145.925C80.2354 145.924 80.5101 145.923 80.7224 146.135L81.2724 145.585C80.9674 145.28 80.5824 145.16 80.0724 145.16C79.2624 145.16 78.7724 145.635 78.7724 146.285C78.7724 146.59 78.8524 146.83 79.0174 147C79.1774 147.165 79.4174 147.27 79.7324 147.315L80.1624 147.375C80.2774 147.39 80.3524 147.425 80.3974 147.47C80.4474 147.525 80.4674 147.595 80.4674 147.68C80.4674 147.885 80.3024 148 79.9574 148C79.6724 148 79.3474 147.935 79.1624 147.75L78.6024 148.31C78.9624 148.68 79.4074 148.78 79.9524 148.78C80.7024 148.78 81.3274 148.385 81.3274 147.66ZM76.8939 148.75L76.1239 147.265C76.4039 147.125 76.7039 146.82 76.7039 146.335C76.7039 145.75 76.2789 145.19 75.4889 145.19H74.0789V148.75H74.9539V147.425H75.2489L75.8789 148.75H76.8939ZM75.8289 146.335C75.8289 146.52 75.6889 146.695 75.4489 146.695H74.9539V145.975H75.4489C75.6889 145.975 75.8289 146.15 75.8289 146.335ZM78.2156 145.19V148.75H77.3406V145.19H78.2156ZM84.3211 147.97V148.75H81.9011V145.19H84.3211V145.97H82.7761V146.565H84.0961V147.345H82.7761V147.97H84.3211Z" fill="white"/>
<path fill-rule="evenodd" clip-rule="evenodd" d="M77.9265 150.95V151.445C77.9265 152.02 77.8365 152.355 77.5665 152.63C77.2615 152.945 76.9215 153.03 76.5315 153.03C76.1165 153.03 75.8015 152.89 75.5415 152.63C75.1804 152.269 75.1809 151.792 75.1814 151.279L75.1815 151.22L75.1814 151.16C75.1809 150.648 75.1804 150.171 75.5415 149.81C75.8015 149.55 76.1015 149.41 76.5315 149.41C77.4465 149.41 77.8365 150.005 77.9215 150.59H77.0415C76.9715 150.32 76.8315 150.19 76.5315 150.19C76.3715 150.19 76.2515 150.26 76.1865 150.345C76.1065 150.45 76.0565 150.57 76.0565 151.22C76.0565 151.87 76.1065 151.995 76.1865 152.1C76.2515 152.185 76.3715 152.25 76.5315 152.25C76.7165 152.25 76.8415 152.195 76.9215 152.11C77.0215 152.01 77.0565 151.865 77.0565 151.73V151.68H76.5315V150.95H77.9265ZM74.9838 153L73.6888 149.44H73.0137L71.7188 153H72.6338L72.8088 152.47H73.9037L74.0687 153H74.9838ZM73.6737 151.74H73.0537L73.3737 150.79L73.6737 151.74ZM81.39 153L80.095 149.44H79.42L78.125 153H79.04L79.215 152.47H80.31L80.475 153H81.39ZM79.46 151.74H80.08L79.78 150.79L79.46 151.74ZM82.6265 153V149.44H81.7515V153H82.6265ZM86.1283 149.44V153H85.3633L84.2233 151.21V153H83.3483V149.44H84.1133L85.2533 151.23V149.44H86.1283Z" fill="#85bae9"/>
<path d="M86.3438 160.25C82.8438 160.35 79.302 163.958 77.9688 165.75C77.9688 168.625 86.3438 171.75 90.2188 171.375C94.0938 171 94.3438 164.375 93.0938 162.875C91.8438 161.375 90.7188 160.125 86.3438 160.25Z" fill="#EBBEAA"/>
<path d="M23.5936 165.125C25.7185 163.75 30.9685 163.5 32.0935 163.5C32.7185 165.292 33.1685 168.95 29.9685 169.25C25.9685 169.625 21.4686 166.5 23.5936 165.125Z" fill="#EBBEAA"/>
<path d="M26.9688 191.125C3.83537 186.928 2.76043 176.834 2.71875 172.001C4.01875 154.001 21.5938 155.375 22.8438 164C25.8438 167.042 26.651 166.887 33.7188 168.25C40.8438 169.625 48.8438 170 62.0938 165.875L76.2188 181.375C67.0938 188.25 55.2188 196.25 26.9688 191.125Z" fill="#333742"/>
<path d="M113.969 161.75C113.969 158.27 108.685 144.247 105.844 137.375L92.9688 145.838C94.9533 149.821 94.804 163.959 90.0415 165.632C84.0882 167.724 46.61 161.599 44.5807 163.093C42.957 164.288 41.4688 174.197 41.4688 177.135C54.1868 182.214 91.3942 193.866 102.759 185.65C108.736 181.329 113.969 173.701 113.969 161.75Z" fill="#343844"/>
<path d="M32.4688 161.5C33.3688 161 40.5938 162.958 44.0938 164C43.0938 164.8 41.8438 174.542 41.7188 175.875C40.7188 175.958 38.4688 171.404 36.5938 170.25C34.2188 168.789 31.552 167.917 29.9688 167.5C30.0105 167.125 30.1437 166.2 30.3438 165.5C30.5938 164.625 31.3438 162.125 32.4688 161.5Z" fill="#2F323D"/>
<path opacity="0.5" d="M95.7188 84.6385C101.241 84.6385 105.719 79.7696 105.719 73.7635C105.719 67.7573 101.241 62.8885 95.7188 62.8885C90.196 62.8885 85.7188 67.7573 85.7188 73.7635C85.7188 79.7696 90.196 84.6385 95.7188 84.6385Z" fill="#C99584"/>
<path opacity="0.5" d="M20.7188 84.6385C15.1959 84.6385 10.7188 79.7696 10.7188 73.7635C10.7188 67.7573 15.1959 62.8885 20.7188 62.8885C26.2415 62.8885 30.7188 67.7573 30.7188 73.7635C30.7188 79.7696 26.2415 84.6385 20.7188 84.6385Z" fill="#C99584"/>
<path d="M20.7188 49.5805C20.7188 28.87 37.508 12.0806 58.2188 12.0806C78.9295 12.0806 95.7188 28.87 95.7188 49.5805V63.292C95.7188 65.5197 95.5485 67.744 95.2093 69.9457L92.9175 84.8222C90.286 101.905 75.5863 114.513 58.3022 114.513C41.3853 114.513 26.8863 102.422 23.8481 85.7797L21.4293 72.5307C20.9566 69.9412 20.7188 67.3142 20.7188 64.682V49.5805Z" fill="#F4D5CC"/>
<path d="M18.3438 38.2635C18.1763 23.0109 31.5945 18.0136 29.219 20.8885C26.8437 23.7634 32.4695 30.8885 29.219 33.1385C25.9687 35.3885 29.594 42.6387 27.844 45.3887C26.094 48.1387 23.3002 47.5137 21.7189 52.8887C20.1376 58.2637 21.4689 68.728 21.4689 68.728C21.5939 69.0137 21.4689 69.3887 21.2189 69.3887C20.9689 69.3887 20.5939 69.2637 20.4923 68.728C20.4923 68.728 18.5938 61.0135 18.3438 38.2635Z" fill="#868686"/>
<path d="M97.9672 38.647C98.122 24.5626 85.7362 19.9479 87.9287 22.6027C90.1212 25.2574 84.9285 31.8367 87.9287 33.9145C90.929 35.9922 87.5827 42.687 89.1982 45.2265C90.8135 47.7657 93.3922 47.1887 94.852 52.152C96.3115 57.1155 95.0827 66.7782 95.0827 66.7782C94.9672 67.0422 95.0827 67.3885 95.3135 67.3885C95.5442 67.3885 95.8902 67.273 95.984 66.7782C95.984 66.7782 97.7365 59.6547 97.9672 38.647Z" fill="#868686"/>
<path d="M59.4688 29.1385C38.7185 29.1385 24.4156 32.5135 21.2189 39.4355C18.0221 46.3575 18.7538 48.5135 18.5939 46.6385C18.4339 44.7635 18.2189 42.67 18.2189 38.8885C18.2189 14.3415 35.3438 10.638 50.8438 12.1382C66.3438 13.6383 78.434 29.1385 59.4688 29.1385Z" fill="#706F6F"/>
<path d="M56.7998 29.0157C75.837 29.0157 94.9337 21.8498 95.7188 35.7632C98.7188 40.5132 97.5938 46.0135 97.9688 38.2632C99.5837 4.88841 48.7188 -17.5797 22.7188 21.2953C22.7188 21.2953 37.7605 29.0157 56.7998 29.0157Z" fill="#706F6F"/>
<path d="M57.2006 66.2097L60.7369 68.5672C59.535 70.37 58.5938 73.0761 58.5938 75.0447C58.5938 76.943 59.2792 77.7409 61.3779 77.763L61.4688 77.7635V82.0135C56.833 82.0135 54.3438 79.2131 54.3438 75.0447C54.3438 72.2209 55.5185 68.7931 57.1132 66.3424L57.2006 66.2097Z" fill="#EBBAAA"/>
<path d="M73.9688 58.25C75.6001 58.25 76.9273 59.5521 76.9678 61.1738L76.9688 61.25V64.75C76.9688 66.4069 75.6256 67.75 73.9688 67.75C72.3374 67.75 71.0102 66.4479 70.9697 64.8262L70.9688 64.75V61.25C70.9688 59.5931 72.3119 58.25 73.9688 58.25Z" fill="#393434"/>
<path d="M42.5938 58.25C44.2251 58.25 45.5523 59.5521 45.5928 61.1738L45.5938 61.25V64.75C45.5938 66.4069 44.2506 67.75 42.5938 67.75C40.9624 67.75 39.6352 66.4479 39.5947 64.8262L39.5938 64.75V61.25C39.5938 59.5931 40.9369 58.25 42.5938 58.25Z" fill="#393434"/>
<path d="M48.2188 30.7635C38.5938 28.42 26.0938 33.7635 18.3438 35.1385C18.3438 18.2634 36.3438 1.01339 56.9688 0.513393C77.5938 0.0133926 90.3438 13.6384 93.5938 20.3884C94.8577 23.0134 91.9688 27.8705 85.2188 30.7635C77.3438 34.1385 62.5938 34.2635 48.2188 30.7635Z" fill="#444343"/>
<path d="M66.664 54.615L64.6002 50.1683L78.7272 46.915L83.247 49.491L83.4882 51.9793L76.5487 51.6473L66.664 54.615Z" fill="#393939"/>
<path d="M48.783 54.4695L50.767 49.9828L36.4808 47.0093L31.986 49.674L31.7953 52.1668L38.7725 51.6978L48.783 54.4695Z" fill="#393939"/>
<path d="M69.0154 87.8403C69.5943 86.8996 70.8262 86.6062 71.7669 87.1851C72.7076 87.764 73.0009 88.9959 72.422 89.9367C71.6237 91.234 69.895 92.6521 67.7461 93.7197C65.1524 95.0083 62.0826 95.75 58.7187 95.75C55.3481 95.75 52.4272 95.008 49.9773 93.6898C48.1064 92.6831 46.6281 91.401 45.6335 90.1079C44.96 89.2324 45.1238 87.9767 45.9993 87.3032C46.8569 86.6435 48.0794 86.7872 48.762 87.6163L48.804 87.669C49.4627 88.5254 50.5111 89.4348 51.8726 90.1674C53.7423 91.1734 56.0123 91.75 58.7187 91.75C61.4559 91.75 63.918 91.1551 65.9664 90.1375C67.4599 89.3954 68.6001 88.4714 68.9889 87.8818L69.0154 87.8403Z" fill="#C99584"/>
</svg>
