<?xml version="1.0" encoding="UTF-8"?>
<svg id="Layer_2" data-name="Layer 2" xmlns="http://www.w3.org/2000/svg" xmlns:xlink="http://www.w3.org/1999/xlink" viewBox="0 0 917.91 208.52">
  <defs>
    <style>
      .cls-1 {
        fill: url(#linear-gradient-2);
      }

      .cls-2 {
        fill: #fff;
      }

      .cls-3 {
        fill: #fef0ea;
      }

      .cls-4 {
        fill: url(#linear-gradient);
      }
    </style>
    <linearGradient id="linear-gradient" x1="922.54" y1="1756.17" x2="691.18" y2="1745.27" gradientTransform="translate(0 -1646.29)" gradientUnits="userSpaceOnUse">
      <stop offset="0" stop-color="#f05513"/>
      <stop offset="1" stop-color="#e97949"/>
    </linearGradient>
    <linearGradient id="linear-gradient-2" x1="749.97" y1="1688.39" x2="868.45" y2="1815.31" gradientTransform="translate(0 -1646.29)" gradientUnits="userSpaceOnUse">
      <stop offset="0" stop-color="#f05513" stop-opacity="0"/>
      <stop offset="1" stop-color="#f05513" stop-opacity=".2"/>
    </linearGradient>
  </defs>
  <g id="Layer_1-2" data-name="Layer 1">
    <g>
      <path class="cls-3" d="M419.12,208.52c-13.25,0-25.34-2.45-36.21-7.33-10.65-5.09-19.13-12.85-25.45-23.25s-9.46-23.65-9.46-39.78c0-15.09,3.25-28.16,9.78-39.17,6.53-11.01,15.13-19.49,25.78-25.41,10.65-6.14,21.98-9.17,33.93-9.17,14.15,0,24.8,2.24,31.98,6.71,7.4,4.3,13.5,9.06,18.27,14.37l-1.95,5.2,3.97-25.52h42.42l.25,143.03h-45.67v-32.45l3.57,9.17c-.43,0-1.73,1.23-3.9,3.68-2.17,2.24-5.45,4.98-9.78,8.27-4.12,3.07-9.35,5.7-15.67,7.94-6.1,2.45-13.39,3.68-21.88,3.68h0v.04ZM432.15,173.64c5.45,0,10.32-.72,14.69-2.13,4.37-1.62,8.16-3.86,11.41-6.71,3.25-3.07,6.1-6.82,8.48-11.34v-32.74c-1.73-4.48-4.37-8.27-7.83-11.34-3.47-3.25-7.62-5.7-12.42-7.33-4.77-1.84-10.11-2.74-15.99-2.74-6.53,0-12.6,1.62-18.27,4.91-5.45,3.07-9.78,7.33-13.07,12.85-3.25,5.52-4.91,11.84-4.91,18.99s1.73,13.57,5.23,19.28c3.47,5.7,8.05,10.22,13.72,13.47,5.88,3.25,12.17,4.91,18.92,4.91v-.07h.04Z"/>
      <path class="cls-3" d="M574.42,64.41l2.67,37.98-.65-5.49c5.02-8.34,12.06-15.05,21.19-20.14,9.13-5.27,20.32-7.94,33.61-7.94s24.69,3.75,33.61,11.3c9.13,7.33,13.83,16.89,14.04,28.66v99.74h-45.67v-83.86c-.22-5.88-1.95-10.58-5.23-14.04-3.03-3.65-8.27-5.49-15.67-5.49-6.97,0-13.07,2.13-18.27,6.39-5.23,4.26-9.24,10.07-12.06,17.4-2.82,7.33-4.22,15.78-4.22,25.31v54.29h-45.67l.94-144.11h41.44-.07Z"/>
      <g>
        <path class="cls-4" d="M854.08,168.52h63.82v39.75h-117l53.21-39.75h-.04ZM695.89,104.44c5.23-139.74,204.58-138.77,210.5,0-3.65,138.01-207.57,138.88-210.5,0h0Z"/>
        <g>
          <path class="cls-2" d="M864.37,92.46c0,43.32-58.95,78.37-61.48,79.82-.65.4-1.41.58-2.17.58s-1.52-.18-2.17-.58c-2.53-1.44-61.48-36.5-61.48-79.82,0-10.18,3.72-19.93,10.32-27.11,6.61-7.18,15.56-11.26,24.91-11.26,11.73,0,21.98,5.49,28.41,14.76,6.43-9.28,16.68-14.76,28.41-14.76,9.31,0,18.3,4.04,24.91,11.26,6.61,7.18,10.32,16.93,10.32,27.11h0Z"/>
          <path class="cls-1" d="M864.37,92.46c0,43.32-58.95,78.37-61.48,79.82-.65.4-1.41.58-2.17.58s-1.52-.18-2.17-.58c-2.53-1.44-61.48-36.5-61.48-79.82,0-10.18,3.72-19.93,10.32-27.11,6.61-7.18,15.56-11.26,24.91-11.26,11.73,0,21.98,5.49,28.41,14.76,6.43-9.28,16.68-14.76,28.41-14.76,9.31,0,18.3,4.04,24.91,11.26,6.61,7.18,10.32,16.93,10.32,27.11h0Z"/>
        </g>
      </g>
      <path class="cls-3" d="M314.28,80.18c-8.92-7.51-20.11-11.26-33.61-11.26s-24.48,2.64-33.61,7.91c-8.95,4.98-15.88,11.52-20.87,19.6V13.83h-44.69v194.47h45.67v-54.19c0-9.53,1.41-17.94,4.22-25.27,2.82-7.29,6.86-13.1,12.06-17.36,5.23-4.26,11.3-6.39,18.27-6.39,7.4,0,12.6,1.84,15.67,5.49,3.25,3.47,5.02,8.12,5.23,14.01v83.68h45.67v-99.53c-.22-11.77-4.91-21.3-14.04-28.59h.04v.04Z"/>
      <g>
        <rect class="cls-3" y="13.83" width="161.83" height="45.67"/>
        <rect class="cls-3" x="57.29" y="13.83" width="47.29" height="194.47"/>
      </g>
    </g>
  </g>
</svg>