<svg width="32" height="32" viewBox="0 0 32 32" fill="none" xmlns="http://www.w3.org/2000/svg">
<path d="M30.35 8.87997C27.9294 10.457 25.2628 11.6196 22.46 12.32C22.55 13.5 22.6 14.71 22.6 15.91C22.6 17.5 22.52 19.1 22.37 20.64C25.0268 21.2975 27.5642 22.3671 29.89 23.81C31.1904 21.5518 31.9128 19.0073 31.993 16.4027C32.0733 13.7981 31.5089 11.214 30.35 8.87997Z" fill="white"/>
<path d="M16 10.94C17.3678 10.9361 18.7327 10.8156 20.08 10.58C19.35 4.31996 17.42 0.529968 16 0.529968C14.58 0.529968 12.64 4.31996 11.91 10.58C13.2607 10.816 14.6289 10.9365 16 10.94Z" fill="white"/>
<path d="M11.72 12.77C11.65 13.77 11.61 14.82 11.61 15.91C11.61 17.44 11.69 18.86 11.81 20.2C14.5872 19.7334 17.4228 19.7334 20.2 20.2C20.32 18.86 20.4 17.44 20.4 15.91C20.4 14.82 20.4 13.77 20.3 12.77C18.882 13.0052 17.4474 13.1256 16.01 13.13C14.5724 13.131 13.1373 13.0106 11.72 12.77Z" fill="white"/>
<path d="M29.27 6.99997C26.9141 3.49724 23.2694 1.06744 19.13 0.23996C20.7 2.33996 21.75 5.98997 22.25 10.13C24.742 9.46793 27.112 8.41122 29.27 6.99997Z" fill="white"/>
<path d="M16.0001 22.05C14.68 22.0538 13.3624 22.1642 12.0601 22.38C12.8801 27.96 14.6601 31.29 16.0001 31.29C17.3401 31.29 19.1101 27.96 19.9401 22.38C18.6376 22.165 17.3201 22.0547 16.0001 22.05Z" fill="white"/>
<path d="M3.33002 25.65C5.67956 28.7428 9.07396 30.8754 12.88 31.65C11.46 29.74 10.46 26.56 9.88004 22.89C7.57096 23.4772 5.36303 24.4076 3.33002 25.65Z" fill="white"/>
<path d="M19.13 31.6C22.9324 30.8232 26.3229 28.6908 28.67 25.6C26.6312 24.3457 24.4169 23.402 22.1 22.8C21.55 26.51 20.56 29.69 19.13 31.6Z" fill="white"/>
<path d="M9.42004 15.91C9.42004 14.71 9.42001 13.5 9.55001 12.32C6.74366 11.6158 4.07392 10.4499 1.65002 8.86996C0.491114 11.2075 -0.0732246 13.7948 0.00701528 16.4026C0.0872552 19.0104 0.809586 21.5581 2.11001 23.82C4.43765 22.3715 6.97876 21.2984 9.64004 20.64C9.49004 19.1 9.42004 17.5 9.42004 15.91Z" fill="white"/>
<path d="M12.88 0.219971C8.73734 1.05236 5.09212 3.48969 2.73999 6.99997C4.89135 8.41249 7.25442 9.47251 9.73999 10.14C10.26 5.99998 11.31 2.31997 12.88 0.219971Z" fill="white"/>
</svg>
